M48
;DRILL file {KiCad (5.0.0-3-g5ebb6b6)} date Tuesday, January 01, 2019 at 03:03:04 PM
;FORMAT={-:-/ absolute / inch / decimal}
FMAT,2
INCH,TZ
T1C0.0197
T2C0.0300
T3C0.0354
T4C0.0394
T5C0.0433
%
G90
G05
M72
T1
X4.0031Y-4.88
X4.0031Y-4.2179
X4.0031Y-5.2
X4.0211Y-4.67
X4.0288Y-4.251
X4.0411Y-4.1309
X4.05Y-3.36
X4.0669Y-3.5276
X4.08Y-4.18
X4.16Y-2.65
X4.16Y-3.52
X4.1634Y-3.1004
X4.1715Y-3.3367
X4.18Y-2.55
X4.1824Y-3.7559
X4.19Y-4.51
X4.1943Y-2.8746
X4.1983Y-3.1991
X4.2012Y-3.1216
X4.2071Y-3.1606
X4.214Y-3.2353
X4.2216Y-3.7507
X4.23Y-4.02
X4.2318Y-3.6607
X4.234Y-3.3292
X4.2466Y-3.7813
X4.25Y-3.87
X4.2524Y-3.6944
X4.2527Y-5.1542
X4.2608Y-3.2908
X4.2652Y-2.7213
X4.2697Y-4.62
X4.27Y-3.59
X4.27Y-4.85
X4.27Y-5.24
X4.28Y-2.77
X4.2916Y-3.2621
X4.2917Y-2.8746
X4.295Y-4.8806
X4.3Y-5.38
X4.3244Y-4.92
X4.3625Y-5.106
X4.37Y-4.32
X4.37Y-5.06
X4.3754Y-5.0008
X4.39Y-5.38
X4.3979Y-4.5279
X4.4Y-2.71
X4.4Y-2.82
X4.4074Y-3.6354
X4.4084Y-3.5716
X4.41Y-5.77
X4.4153Y-2.9075
X4.42Y-4.88
X4.42Y-5.1019
X4.43Y-2.79
X4.43Y-3.51
X4.4367Y-3.6943
X4.44Y-2.71
X4.45Y-4.76
X4.4506Y-3.5759
X4.46Y-3.89
X4.4612Y-5.01
X4.4681Y-3.1729
X4.4689Y-2.7996
X4.47Y-4.57
X4.47Y-5.73
X4.48Y-2.71
X4.4875Y-5.1019
X4.49Y-3.14
X4.49Y-5.38
X4.49Y-5.58
X4.4912Y-5.0616
X4.5Y-3.1
X4.5Y-3.9
X4.51Y-3.94
X4.51Y-3.98
X4.515Y-4.9056
X4.53Y-4.68
X4.53Y-5.26
X4.54Y-5.71
X4.55Y-4.28
X4.5568Y-3.648
X4.56Y-3.74
X4.5618Y-3.0211
X4.573Y-3.8346
X4.575Y-3.7882
X4.5901Y-3.6692
X4.5903Y-4.8603
X4.5967Y-3.2471
X4.6Y-5.38
X4.6Y-5.5
X4.61Y-2.61
X4.61Y-5.58
X4.6259Y-3.9778
X4.63Y-2.38
X4.64Y-2.54
X4.6475Y-2.6325
X4.6484Y-4.0102
X4.65Y-3.42
X4.65Y-5.14
X4.6513Y-3.5442
X4.6682Y-3.3282
X4.67Y-3.16
X4.6851Y-3.6755
X4.6879Y-4.0113
X4.6895Y-3.5541
X4.6914Y-3.77
X4.7Y-3.24
X4.7116Y-4.7201
X4.7184Y-2.7119
X4.72Y-3.4194
X4.72Y-3.74
X4.7287Y-3.5591
X4.73Y-4.39
X4.746Y-4.0113
X4.7611Y-4.7348
X4.77Y-4.6964
X4.787Y-3.5514
X4.7871Y-4.0113
X4.79Y-5.23
X4.79Y-5.4
X4.8Y-4.2704
X4.8055Y-4.5749
X4.8077Y-5.1728
X4.81Y-3.7567
X4.8145Y-4.6577
X4.8169Y-3.9854
X4.84Y-3.53
X4.84Y-5.15
X4.8445Y-5.411
X4.87Y-5.76
X4.9Y-3.6913
X4.9Y-5.58
X4.9155Y-5.151
X4.93Y-2.49
X4.93Y-5.43
X4.9453Y-4.6853
X4.95Y-4.28
X4.95Y-4.64
X4.9532Y-5.1752
X4.96Y-5.4
X4.96Y-5.53
X4.9719Y-4.5737
X4.9742Y-4.7122
X4.9867Y-4.7888
X4.99Y-3.5
X4.99Y-5.23
X4.994Y-4.7464
X4.9994Y-5.0006
X5.Y-5.08
X5.01Y-3.03
X5.0197Y-3.2185
X5.0286Y-3.8487
X5.05Y-3.91
X5.05Y-4.71
X5.0591Y-3.189
X5.06Y-2.36
X5.06Y-4.29
X5.0654Y-3.8632
X5.08Y-4.59
X5.09Y-3.38
X5.09Y-3.99
X5.1Y-3.19
X5.1197Y-3.1459
X5.12Y-3.35
X5.1206Y-3.1064
X5.1499Y-4.9212
X5.1538Y-3.2814
X5.16Y-4.59
X5.161Y-5.1679
X5.17Y-4.67
X5.17Y-5.24
X5.18Y-3.1
X5.18Y-3.41
X5.19Y-3.31
X5.2Y-5.37
X5.23Y-3.05
X5.25Y-4.29
X5.27Y-2.25
X5.27Y-5.06
X5.2792Y-5.7
X5.28Y-5.1
X5.2869Y-3.5438
X5.29Y-4.58
X5.29Y-4.86
X5.29Y-5.37
X5.3Y-5.
X5.3051Y-3.6417
X5.3113Y-4.7121
X5.3144Y-4.637
X5.3153Y-4.5147
X5.32Y-5.76
X5.34Y-4.74
X5.35Y-4.58
X5.3507Y-2.9602
X5.36Y-4.52
X5.36Y-5.
X5.37Y-3.5579
X5.37Y-4.31
X5.37Y-5.1
X5.37Y-5.37
X5.38Y-4.63
X5.38Y-5.06
X5.39Y-4.87
X5.39Y-5.43
X5.4408Y-5.68
X5.4701Y-2.9487
X5.4822Y-3.0978
X5.4824Y-4.8607
X5.49Y-4.45
X5.49Y-5.37
X5.5Y-4.59
X5.5Y-4.7
X5.5Y-5.24
X5.51Y-5.16
X5.5101Y-2.9469
X5.52Y-3.78
X5.5207Y-2.5563
X5.55Y-2.59
X5.55Y-2.9469
X5.58Y-4.59
X5.59Y-3.35
X5.61Y-3.16
X5.65Y-2.76
X5.66Y-4.71
X5.69Y-5.23
X5.7213Y-5.4132
X5.7265Y-5.1871
X5.74Y-3.47
X5.74Y-5.15
X5.75Y-5.47
X5.75Y-5.54
X5.76Y-4.49
X5.77Y-4.72
X5.78Y-4.31
X5.78Y-4.83
X5.78Y-5.76
X5.7971Y-3.0612
X5.82Y-4.71
X5.82Y-5.15
X5.8268Y-4.0484
X5.83Y-4.2809
X5.8325Y-5.1875
X5.8366Y-3.061
X5.8366Y-3.9862
X5.84Y-5.57
X5.86Y-2.76
X5.87Y-4.51
X5.88Y-5.22
X5.89Y-5.41
X6.Y-4.5
X6.03Y-2.64
X6.03Y-3.52
X6.0476Y-3.0509
X6.05Y-2.79
X6.05Y-4.2809
X6.0503Y-4.9198
X6.0555Y-5.1603
X6.08Y-4.65
X6.08Y-5.25
X6.092Y-3.078
X6.1Y-5.37
X6.12Y-4.79
X6.13Y-3.87
X6.14Y-4.66
X6.15Y-5.
X6.1587Y-4.8957
X6.16Y-4.43
X6.1664Y-5.67
X6.17Y-5.07
X6.17Y-5.1095
X6.18Y-4.83
X6.2Y-4.28
X6.21Y-5.76
X6.22Y-5.38
X6.2215Y-5.0173
X6.222Y-4.1518
X6.2317Y-4.0983
X6.25Y-4.99
X6.26Y-2.81
X6.28Y-5.37
X6.2894Y-5.1129
X6.2966Y-5.074
X6.3Y-5.42
X6.35Y-5.64
X6.36Y-3.67
X6.37Y-4.43
X6.4Y-5.37
X6.41Y-4.6
X6.41Y-5.2
X6.4118Y-2.63
X6.412Y-5.1307
X6.4376Y-3.7867
X6.45Y-5.02
X6.45Y-5.12
X6.46Y-2.67
X6.4764Y-4.07
X6.48Y-4.12
X6.51Y-3.22
X6.51Y-3.32
X6.5151Y-3.4187
X6.53Y-5.65
X6.57Y-5.11
X6.575Y-5.1787
X6.58Y-5.
X6.59Y-4.08
X6.6653Y-5.1753
X4.01Y-5.87
T2
X4.1047Y-2.4685
X4.5555Y-2.4685
X5.0063Y-2.4685
X6.3587Y-2.4685
X5.4571Y-2.4685
X5.9079Y-2.4685
T3
X6.5768Y-5.4783
X6.5768Y-5.5783
X5.1063Y-2.4685
X5.2063Y-2.4685
X4.2047Y-2.4685
X4.3047Y-2.4685
X6.126Y-5.4783
X6.126Y-5.5783
X5.6752Y-5.4783
X5.6752Y-5.5783
X6.4587Y-2.4685
X6.5587Y-2.4685
X5.5571Y-2.4685
X5.6571Y-2.4685
X5.2244Y-5.4783
X5.2244Y-5.5783
X4.6555Y-2.4685
X4.7555Y-2.4685
X4.3228Y-5.4783
X4.3228Y-5.5783
X6.0079Y-2.4685
X6.1079Y-2.4685
X4.7736Y-5.4783
X4.7736Y-5.5783
T4
X5.0079Y-2.3031
X5.1063Y-2.3031
X5.2047Y-2.3031
X4.43Y-2.37
X4.43Y-2.47
X4.43Y-2.57
X4.0768Y-2.6457
X4.0768Y-2.8228
X4.3327Y-2.6457
X4.3327Y-2.8228
X6.3307Y-2.6457
X6.3307Y-2.8228
X6.5866Y-2.6457
X6.5866Y-2.8228
X5.4291Y-2.6457
X5.4291Y-2.8228
X5.685Y-2.6457
X5.685Y-2.8228
X4.1063Y-2.3031
X4.2047Y-2.3031
X4.3031Y-2.3031
X5.2165Y-3.5378
X5.2165Y-3.6378
X5.2165Y-3.7378
X5.2165Y-3.8378
X4.5276Y-2.6457
X4.5276Y-2.8228
X4.7835Y-2.6457
X4.7835Y-2.8228
X6.23Y-2.37
X6.23Y-2.47
X6.23Y-2.57
X5.9094Y-2.3031
X6.0079Y-2.3031
X6.1063Y-2.3031
X4.5571Y-2.3031
X4.6555Y-2.3031
X4.7539Y-2.3031
X5.8799Y-2.6457
X5.8799Y-2.8228
X6.1358Y-2.6457
X6.1358Y-2.8228
X6.3602Y-2.3031
X6.4587Y-2.3031
X6.5571Y-2.3031
X5.4587Y-2.3031
X5.5571Y-2.3031
X5.6555Y-2.3031
X4.9783Y-2.6457
X4.9783Y-2.8228
X5.2343Y-2.6457
X5.2343Y-2.8228
T5
X6.0079Y-4.9567
X6.0079Y-5.2913
X6.0079Y-5.4094
X5.1063Y-4.3819
X5.1063Y-4.7165
X5.1063Y-4.8346
X5.1063Y-4.9567
X5.1063Y-5.2913
X5.1063Y-5.4094
X4.2047Y-4.9567
X4.2047Y-5.2913
X4.2047Y-5.4094
X6.0079Y-4.3819
X6.0079Y-4.7165
X6.0079Y-4.8346
X4.9587Y-2.9882
X4.9587Y-4.1693
X5.0571Y-4.1693
X5.1555Y-2.9882
X5.1555Y-4.1693
X5.2539Y-4.1693
X6.4587Y-5.5315
X6.4587Y-5.8661
X6.4587Y-5.9843
X5.5571Y-5.5315
X5.5571Y-5.8661
X5.5571Y-5.9843
X4.2047Y-4.3819
X4.2047Y-4.7165
X4.2047Y-4.8346
X4.6555Y-5.5315
X4.6555Y-5.8661
X4.6555Y-5.9843
X4.0571Y-2.9882
X4.1555Y-2.9882
X4.1555Y-4.1693
X4.2539Y-2.9882
X4.3524Y-2.9882
X4.3524Y-4.1693
X6.4587Y-4.9567
X6.4587Y-5.2913
X6.4587Y-5.4094
X5.5571Y-4.9567
X5.5571Y-5.2913
X5.5571Y-5.4094
X4.6555Y-4.9567
X4.6555Y-5.2913
X4.6555Y-5.4094
X6.4587Y-4.3819
X6.4587Y-4.7165
X6.4587Y-4.8346
X4.5079Y-2.9882
X4.5079Y-4.1693
X4.6063Y-4.1693
X4.7047Y-2.9882
X4.7047Y-4.1693
X4.8031Y-4.1693
X5.4094Y-2.9882
X5.4094Y-4.1693
X5.5079Y-4.1693
X5.6063Y-2.9882
X5.6063Y-4.1693
X5.7047Y-4.1693
X5.5571Y-4.3819
X5.5571Y-4.7165
X5.5571Y-4.8346
X6.311Y-2.9882
X6.4094Y-2.9882
X6.4094Y-4.1693
X6.5079Y-2.9882
X6.6063Y-2.9882
X6.6063Y-4.1693
X6.0079Y-5.5315
X6.0079Y-5.8661
X6.0079Y-5.9843
X4.6555Y-4.3819
X4.6555Y-4.7165
X4.6555Y-4.8346
X5.1063Y-5.5315
X5.1063Y-5.8661
X5.1063Y-5.9843
X5.8602Y-2.9882
X5.8602Y-4.1693
X5.9587Y-4.1693
X6.0571Y-2.9882
X6.0571Y-4.1693
X6.1555Y-4.1693
X4.2047Y-5.5315
X4.2047Y-5.8661
X4.2047Y-5.9843
T0
M30
