G04 #@! TF.GenerationSoftware,KiCad,Pcbnew,(5.0.0-3-g5ebb6b6)*
G04 #@! TF.CreationDate,2019-01-01T15:02:40-08:00*
G04 #@! TF.ProjectId,Stages,5374616765732E6B696361645F706362,rev?*
G04 #@! TF.SameCoordinates,Original*
G04 #@! TF.FileFunction,Legend,Bot*
G04 #@! TF.FilePolarity,Positive*
%FSLAX46Y46*%
G04 Gerber Fmt 4.6, Leading zero omitted, Abs format (unit mm)*
G04 Created by KiCad (PCBNEW (5.0.0-3-g5ebb6b6)) date Tuesday, January 01, 2019 at 03:02:40 PM*
%MOMM*%
%LPD*%
G01*
G04 APERTURE LIST*
%ADD10C,0.127000*%
%ADD11C,0.120000*%
%ADD12C,0.150000*%
%ADD13C,0.125000*%
%ADD14C,0.050000*%
G04 APERTURE END LIST*
D10*
G04 #@! TO.C,J1*
X163850000Y-152200000D02*
X163850000Y-150000000D01*
X164250000Y-152200000D02*
X163850000Y-152200000D01*
X164250000Y-150100000D02*
X164250000Y-152200000D01*
X166740720Y-145500000D02*
G75*
G03X166740720Y-145500000I-2690720J0D01*
G01*
X162550000Y-141500000D02*
X162550000Y-139500000D01*
X165550000Y-141500000D02*
X162550000Y-141500000D01*
X165550000Y-139500000D02*
X165550000Y-141500000D01*
X167212280Y-145500000D02*
G75*
G03X167212280Y-145500000I-3162280J0D01*
G01*
X159550000Y-150000000D02*
X159550000Y-139500000D01*
X163850000Y-150000000D02*
X159550000Y-150000000D01*
X168550000Y-150000000D02*
X163850000Y-150000000D01*
X168550000Y-139500000D02*
X168550000Y-150000000D01*
X162550000Y-139500000D02*
X159550000Y-139500000D01*
X165550000Y-139500000D02*
X162550000Y-139500000D01*
X168550000Y-139500000D02*
X165550000Y-139500000D01*
G04 #@! TO.C,J2*
X157100000Y-139500000D02*
X154100000Y-139500000D01*
X154100000Y-139500000D02*
X151100000Y-139500000D01*
X151100000Y-139500000D02*
X148100000Y-139500000D01*
X157100000Y-139500000D02*
X157100000Y-150000000D01*
X157100000Y-150000000D02*
X152400000Y-150000000D01*
X152400000Y-150000000D02*
X148100000Y-150000000D01*
X148100000Y-150000000D02*
X148100000Y-139500000D01*
X155762280Y-145500000D02*
G75*
G03X155762280Y-145500000I-3162280J0D01*
G01*
X154100000Y-139500000D02*
X154100000Y-141500000D01*
X154100000Y-141500000D02*
X151100000Y-141500000D01*
X151100000Y-141500000D02*
X151100000Y-139500000D01*
X155290720Y-145500000D02*
G75*
G03X155290720Y-145500000I-2690720J0D01*
G01*
X152800000Y-150100000D02*
X152800000Y-152200000D01*
X152800000Y-152200000D02*
X152400000Y-152200000D01*
X152400000Y-152200000D02*
X152400000Y-150000000D01*
G04 #@! TO.C,J3*
X140950000Y-152200000D02*
X140950000Y-150000000D01*
X141350000Y-152200000D02*
X140950000Y-152200000D01*
X141350000Y-150100000D02*
X141350000Y-152200000D01*
X143840720Y-145500000D02*
G75*
G03X143840720Y-145500000I-2690720J0D01*
G01*
X139650000Y-141500000D02*
X139650000Y-139500000D01*
X142650000Y-141500000D02*
X139650000Y-141500000D01*
X142650000Y-139500000D02*
X142650000Y-141500000D01*
X144312280Y-145500000D02*
G75*
G03X144312280Y-145500000I-3162280J0D01*
G01*
X136650000Y-150000000D02*
X136650000Y-139500000D01*
X140950000Y-150000000D02*
X136650000Y-150000000D01*
X145650000Y-150000000D02*
X140950000Y-150000000D01*
X145650000Y-139500000D02*
X145650000Y-150000000D01*
X139650000Y-139500000D02*
X136650000Y-139500000D01*
X142650000Y-139500000D02*
X139650000Y-139500000D01*
X145650000Y-139500000D02*
X142650000Y-139500000D01*
G04 #@! TO.C,J4*
X134200000Y-139500000D02*
X131200000Y-139500000D01*
X131200000Y-139500000D02*
X128200000Y-139500000D01*
X128200000Y-139500000D02*
X125200000Y-139500000D01*
X134200000Y-139500000D02*
X134200000Y-150000000D01*
X134200000Y-150000000D02*
X129500000Y-150000000D01*
X129500000Y-150000000D02*
X125200000Y-150000000D01*
X125200000Y-150000000D02*
X125200000Y-139500000D01*
X132862280Y-145500000D02*
G75*
G03X132862280Y-145500000I-3162280J0D01*
G01*
X131200000Y-139500000D02*
X131200000Y-141500000D01*
X131200000Y-141500000D02*
X128200000Y-141500000D01*
X128200000Y-141500000D02*
X128200000Y-139500000D01*
X132390720Y-145500000D02*
G75*
G03X132390720Y-145500000I-2690720J0D01*
G01*
X129900000Y-150100000D02*
X129900000Y-152200000D01*
X129900000Y-152200000D02*
X129500000Y-152200000D01*
X129500000Y-152200000D02*
X129500000Y-150000000D01*
G04 #@! TO.C,J5*
X118050000Y-152200000D02*
X118050000Y-150000000D01*
X118450000Y-152200000D02*
X118050000Y-152200000D01*
X118450000Y-150100000D02*
X118450000Y-152200000D01*
X120940720Y-145500000D02*
G75*
G03X120940720Y-145500000I-2690720J0D01*
G01*
X116750000Y-141500000D02*
X116750000Y-139500000D01*
X119750000Y-141500000D02*
X116750000Y-141500000D01*
X119750000Y-139500000D02*
X119750000Y-141500000D01*
X121412280Y-145500000D02*
G75*
G03X121412280Y-145500000I-3162280J0D01*
G01*
X113750000Y-150000000D02*
X113750000Y-139500000D01*
X118050000Y-150000000D02*
X113750000Y-150000000D01*
X122750000Y-150000000D02*
X118050000Y-150000000D01*
X122750000Y-139500000D02*
X122750000Y-150000000D01*
X116750000Y-139500000D02*
X113750000Y-139500000D01*
X119750000Y-139500000D02*
X116750000Y-139500000D01*
X122750000Y-139500000D02*
X119750000Y-139500000D01*
G04 #@! TO.C,J6*
X111300000Y-139500000D02*
X108300000Y-139500000D01*
X108300000Y-139500000D02*
X105300000Y-139500000D01*
X105300000Y-139500000D02*
X102300000Y-139500000D01*
X111300000Y-139500000D02*
X111300000Y-150000000D01*
X111300000Y-150000000D02*
X106600000Y-150000000D01*
X106600000Y-150000000D02*
X102300000Y-150000000D01*
X102300000Y-150000000D02*
X102300000Y-139500000D01*
X109962280Y-145500000D02*
G75*
G03X109962280Y-145500000I-3162280J0D01*
G01*
X108300000Y-139500000D02*
X108300000Y-141500000D01*
X108300000Y-141500000D02*
X105300000Y-141500000D01*
X105300000Y-141500000D02*
X105300000Y-139500000D01*
X109490720Y-145500000D02*
G75*
G03X109490720Y-145500000I-2690720J0D01*
G01*
X107000000Y-150100000D02*
X107000000Y-152200000D01*
X107000000Y-152200000D02*
X106600000Y-152200000D01*
X106600000Y-152200000D02*
X106600000Y-150000000D01*
G04 #@! TO.C,J7*
X168550000Y-124900000D02*
X165550000Y-124900000D01*
X165550000Y-124900000D02*
X162550000Y-124900000D01*
X162550000Y-124900000D02*
X159550000Y-124900000D01*
X168550000Y-124900000D02*
X168550000Y-135400000D01*
X168550000Y-135400000D02*
X163850000Y-135400000D01*
X163850000Y-135400000D02*
X159550000Y-135400000D01*
X159550000Y-135400000D02*
X159550000Y-124900000D01*
X167212280Y-130900000D02*
G75*
G03X167212280Y-130900000I-3162280J0D01*
G01*
X165550000Y-124900000D02*
X165550000Y-126900000D01*
X165550000Y-126900000D02*
X162550000Y-126900000D01*
X162550000Y-126900000D02*
X162550000Y-124900000D01*
X166740720Y-130900000D02*
G75*
G03X166740720Y-130900000I-2690720J0D01*
G01*
X164250000Y-135500000D02*
X164250000Y-137600000D01*
X164250000Y-137600000D02*
X163850000Y-137600000D01*
X163850000Y-137600000D02*
X163850000Y-135400000D01*
G04 #@! TO.C,J8*
X157100000Y-124900000D02*
X154100000Y-124900000D01*
X154100000Y-124900000D02*
X151100000Y-124900000D01*
X151100000Y-124900000D02*
X148100000Y-124900000D01*
X157100000Y-124900000D02*
X157100000Y-135400000D01*
X157100000Y-135400000D02*
X152400000Y-135400000D01*
X152400000Y-135400000D02*
X148100000Y-135400000D01*
X148100000Y-135400000D02*
X148100000Y-124900000D01*
X155762280Y-130900000D02*
G75*
G03X155762280Y-130900000I-3162280J0D01*
G01*
X154100000Y-124900000D02*
X154100000Y-126900000D01*
X154100000Y-126900000D02*
X151100000Y-126900000D01*
X151100000Y-126900000D02*
X151100000Y-124900000D01*
X155290720Y-130900000D02*
G75*
G03X155290720Y-130900000I-2690720J0D01*
G01*
X152800000Y-135500000D02*
X152800000Y-137600000D01*
X152800000Y-137600000D02*
X152400000Y-137600000D01*
X152400000Y-137600000D02*
X152400000Y-135400000D01*
G04 #@! TO.C,J9*
X140950000Y-137600000D02*
X140950000Y-135400000D01*
X141350000Y-137600000D02*
X140950000Y-137600000D01*
X141350000Y-135500000D02*
X141350000Y-137600000D01*
X143840720Y-130900000D02*
G75*
G03X143840720Y-130900000I-2690720J0D01*
G01*
X139650000Y-126900000D02*
X139650000Y-124900000D01*
X142650000Y-126900000D02*
X139650000Y-126900000D01*
X142650000Y-124900000D02*
X142650000Y-126900000D01*
X144312280Y-130900000D02*
G75*
G03X144312280Y-130900000I-3162280J0D01*
G01*
X136650000Y-135400000D02*
X136650000Y-124900000D01*
X140950000Y-135400000D02*
X136650000Y-135400000D01*
X145650000Y-135400000D02*
X140950000Y-135400000D01*
X145650000Y-124900000D02*
X145650000Y-135400000D01*
X139650000Y-124900000D02*
X136650000Y-124900000D01*
X142650000Y-124900000D02*
X139650000Y-124900000D01*
X145650000Y-124900000D02*
X142650000Y-124900000D01*
G04 #@! TO.C,J10*
X134200000Y-124900000D02*
X131200000Y-124900000D01*
X131200000Y-124900000D02*
X128200000Y-124900000D01*
X128200000Y-124900000D02*
X125200000Y-124900000D01*
X134200000Y-124900000D02*
X134200000Y-135400000D01*
X134200000Y-135400000D02*
X129500000Y-135400000D01*
X129500000Y-135400000D02*
X125200000Y-135400000D01*
X125200000Y-135400000D02*
X125200000Y-124900000D01*
X132862280Y-130900000D02*
G75*
G03X132862280Y-130900000I-3162280J0D01*
G01*
X131200000Y-124900000D02*
X131200000Y-126900000D01*
X131200000Y-126900000D02*
X128200000Y-126900000D01*
X128200000Y-126900000D02*
X128200000Y-124900000D01*
X132390720Y-130900000D02*
G75*
G03X132390720Y-130900000I-2690720J0D01*
G01*
X129900000Y-135500000D02*
X129900000Y-137600000D01*
X129900000Y-137600000D02*
X129500000Y-137600000D01*
X129500000Y-137600000D02*
X129500000Y-135400000D01*
G04 #@! TO.C,J11*
X118050000Y-137600000D02*
X118050000Y-135400000D01*
X118450000Y-137600000D02*
X118050000Y-137600000D01*
X118450000Y-135500000D02*
X118450000Y-137600000D01*
X120940720Y-130900000D02*
G75*
G03X120940720Y-130900000I-2690720J0D01*
G01*
X116750000Y-126900000D02*
X116750000Y-124900000D01*
X119750000Y-126900000D02*
X116750000Y-126900000D01*
X119750000Y-124900000D02*
X119750000Y-126900000D01*
X121412280Y-130900000D02*
G75*
G03X121412280Y-130900000I-3162280J0D01*
G01*
X113750000Y-135400000D02*
X113750000Y-124900000D01*
X118050000Y-135400000D02*
X113750000Y-135400000D01*
X122750000Y-135400000D02*
X118050000Y-135400000D01*
X122750000Y-124900000D02*
X122750000Y-135400000D01*
X116750000Y-124900000D02*
X113750000Y-124900000D01*
X119750000Y-124900000D02*
X116750000Y-124900000D01*
X122750000Y-124900000D02*
X119750000Y-124900000D01*
G04 #@! TO.C,J12*
X106600000Y-137600000D02*
X106600000Y-135400000D01*
X107000000Y-137600000D02*
X106600000Y-137600000D01*
X107000000Y-135500000D02*
X107000000Y-137600000D01*
X109490720Y-130900000D02*
G75*
G03X109490720Y-130900000I-2690720J0D01*
G01*
X105300000Y-126900000D02*
X105300000Y-124900000D01*
X108300000Y-126900000D02*
X105300000Y-126900000D01*
X108300000Y-124900000D02*
X108300000Y-126900000D01*
X109962280Y-130900000D02*
G75*
G03X109962280Y-130900000I-3162280J0D01*
G01*
X102300000Y-135400000D02*
X102300000Y-124900000D01*
X106600000Y-135400000D02*
X102300000Y-135400000D01*
X111300000Y-135400000D02*
X106600000Y-135400000D01*
X111300000Y-124900000D02*
X111300000Y-135400000D01*
X105300000Y-124900000D02*
X102300000Y-124900000D01*
X108300000Y-124900000D02*
X105300000Y-124900000D01*
X111300000Y-124900000D02*
X108300000Y-124900000D01*
G04 #@! TO.C,J13*
X163850000Y-123000000D02*
X163850000Y-120800000D01*
X164250000Y-123000000D02*
X163850000Y-123000000D01*
X164250000Y-120900000D02*
X164250000Y-123000000D01*
X166740720Y-116300000D02*
G75*
G03X166740720Y-116300000I-2690720J0D01*
G01*
X162550000Y-112300000D02*
X162550000Y-110300000D01*
X165550000Y-112300000D02*
X162550000Y-112300000D01*
X165550000Y-110300000D02*
X165550000Y-112300000D01*
X167212280Y-116300000D02*
G75*
G03X167212280Y-116300000I-3162280J0D01*
G01*
X159550000Y-120800000D02*
X159550000Y-110300000D01*
X163850000Y-120800000D02*
X159550000Y-120800000D01*
X168550000Y-120800000D02*
X163850000Y-120800000D01*
X168550000Y-110300000D02*
X168550000Y-120800000D01*
X162550000Y-110300000D02*
X159550000Y-110300000D01*
X165550000Y-110300000D02*
X162550000Y-110300000D01*
X168550000Y-110300000D02*
X165550000Y-110300000D01*
G04 #@! TO.C,J14*
X152400000Y-123000000D02*
X152400000Y-120800000D01*
X152800000Y-123000000D02*
X152400000Y-123000000D01*
X152800000Y-120900000D02*
X152800000Y-123000000D01*
X155290720Y-116300000D02*
G75*
G03X155290720Y-116300000I-2690720J0D01*
G01*
X151100000Y-112300000D02*
X151100000Y-110300000D01*
X154100000Y-112300000D02*
X151100000Y-112300000D01*
X154100000Y-110300000D02*
X154100000Y-112300000D01*
X155762280Y-116300000D02*
G75*
G03X155762280Y-116300000I-3162280J0D01*
G01*
X148100000Y-120800000D02*
X148100000Y-110300000D01*
X152400000Y-120800000D02*
X148100000Y-120800000D01*
X157100000Y-120800000D02*
X152400000Y-120800000D01*
X157100000Y-110300000D02*
X157100000Y-120800000D01*
X151100000Y-110300000D02*
X148100000Y-110300000D01*
X154100000Y-110300000D02*
X151100000Y-110300000D01*
X157100000Y-110300000D02*
X154100000Y-110300000D01*
G04 #@! TO.C,J15*
X145650000Y-110300000D02*
X142650000Y-110300000D01*
X142650000Y-110300000D02*
X139650000Y-110300000D01*
X139650000Y-110300000D02*
X136650000Y-110300000D01*
X145650000Y-110300000D02*
X145650000Y-120800000D01*
X145650000Y-120800000D02*
X140950000Y-120800000D01*
X140950000Y-120800000D02*
X136650000Y-120800000D01*
X136650000Y-120800000D02*
X136650000Y-110300000D01*
X144312280Y-116300000D02*
G75*
G03X144312280Y-116300000I-3162280J0D01*
G01*
X142650000Y-110300000D02*
X142650000Y-112300000D01*
X142650000Y-112300000D02*
X139650000Y-112300000D01*
X139650000Y-112300000D02*
X139650000Y-110300000D01*
X143840720Y-116300000D02*
G75*
G03X143840720Y-116300000I-2690720J0D01*
G01*
X141350000Y-120900000D02*
X141350000Y-123000000D01*
X141350000Y-123000000D02*
X140950000Y-123000000D01*
X140950000Y-123000000D02*
X140950000Y-120800000D01*
G04 #@! TO.C,J16*
X134200000Y-110300000D02*
X131200000Y-110300000D01*
X131200000Y-110300000D02*
X128200000Y-110300000D01*
X128200000Y-110300000D02*
X125200000Y-110300000D01*
X134200000Y-110300000D02*
X134200000Y-120800000D01*
X134200000Y-120800000D02*
X129500000Y-120800000D01*
X129500000Y-120800000D02*
X125200000Y-120800000D01*
X125200000Y-120800000D02*
X125200000Y-110300000D01*
X132862280Y-116300000D02*
G75*
G03X132862280Y-116300000I-3162280J0D01*
G01*
X131200000Y-110300000D02*
X131200000Y-112300000D01*
X131200000Y-112300000D02*
X128200000Y-112300000D01*
X128200000Y-112300000D02*
X128200000Y-110300000D01*
X132390720Y-116300000D02*
G75*
G03X132390720Y-116300000I-2690720J0D01*
G01*
X129900000Y-120900000D02*
X129900000Y-123000000D01*
X129900000Y-123000000D02*
X129500000Y-123000000D01*
X129500000Y-123000000D02*
X129500000Y-120800000D01*
G04 #@! TO.C,J17*
X122750000Y-110300000D02*
X119750000Y-110300000D01*
X119750000Y-110300000D02*
X116750000Y-110300000D01*
X116750000Y-110300000D02*
X113750000Y-110300000D01*
X122750000Y-110300000D02*
X122750000Y-120800000D01*
X122750000Y-120800000D02*
X118050000Y-120800000D01*
X118050000Y-120800000D02*
X113750000Y-120800000D01*
X113750000Y-120800000D02*
X113750000Y-110300000D01*
X121412280Y-116300000D02*
G75*
G03X121412280Y-116300000I-3162280J0D01*
G01*
X119750000Y-110300000D02*
X119750000Y-112300000D01*
X119750000Y-112300000D02*
X116750000Y-112300000D01*
X116750000Y-112300000D02*
X116750000Y-110300000D01*
X120940720Y-116300000D02*
G75*
G03X120940720Y-116300000I-2690720J0D01*
G01*
X118450000Y-120900000D02*
X118450000Y-123000000D01*
X118450000Y-123000000D02*
X118050000Y-123000000D01*
X118050000Y-123000000D02*
X118050000Y-120800000D01*
G04 #@! TO.C,J18*
X106600000Y-123000000D02*
X106600000Y-120800000D01*
X107000000Y-123000000D02*
X106600000Y-123000000D01*
X107000000Y-120900000D02*
X107000000Y-123000000D01*
X109490720Y-116300000D02*
G75*
G03X109490720Y-116300000I-2690720J0D01*
G01*
X105300000Y-112300000D02*
X105300000Y-110300000D01*
X108300000Y-112300000D02*
X105300000Y-112300000D01*
X108300000Y-110300000D02*
X108300000Y-112300000D01*
X109962280Y-116300000D02*
G75*
G03X109962280Y-116300000I-3162280J0D01*
G01*
X102300000Y-120800000D02*
X102300000Y-110300000D01*
X106600000Y-120800000D02*
X102300000Y-120800000D01*
X111300000Y-120800000D02*
X106600000Y-120800000D01*
X111300000Y-110300000D02*
X111300000Y-120800000D01*
X105300000Y-110300000D02*
X102300000Y-110300000D01*
X108300000Y-110300000D02*
X105300000Y-110300000D01*
X111300000Y-110300000D02*
X108300000Y-110300000D01*
D11*
G04 #@! TO.C,LED1*
X168130000Y-138860000D02*
X168286000Y-138860000D01*
X165814000Y-138860000D02*
X165970000Y-138860000D01*
X168129837Y-141461130D02*
G75*
G03X168130000Y-139379039I-1079837J1041130D01*
G01*
X165970163Y-141461130D02*
G75*
G02X165970000Y-139379039I1079837J1041130D01*
G01*
X168128608Y-142092335D02*
G75*
G03X168285516Y-138860000I-1078608J1672335D01*
G01*
X165971392Y-142092335D02*
G75*
G02X165814484Y-138860000I1078608J1672335D01*
G01*
G04 #@! TO.C,LED2*
X143071392Y-142092335D02*
G75*
G02X142914484Y-138860000I1078608J1672335D01*
G01*
X145228608Y-142092335D02*
G75*
G03X145385516Y-138860000I-1078608J1672335D01*
G01*
X143070163Y-141461130D02*
G75*
G02X143070000Y-139379039I1079837J1041130D01*
G01*
X145229837Y-141461130D02*
G75*
G03X145230000Y-139379039I-1079837J1041130D01*
G01*
X142914000Y-138860000D02*
X143070000Y-138860000D01*
X145230000Y-138860000D02*
X145386000Y-138860000D01*
G04 #@! TO.C,LED3*
X131621392Y-142092335D02*
G75*
G02X131464484Y-138860000I1078608J1672335D01*
G01*
X133778608Y-142092335D02*
G75*
G03X133935516Y-138860000I-1078608J1672335D01*
G01*
X131620163Y-141461130D02*
G75*
G02X131620000Y-139379039I1079837J1041130D01*
G01*
X133779837Y-141461130D02*
G75*
G03X133780000Y-139379039I-1079837J1041130D01*
G01*
X131464000Y-138860000D02*
X131620000Y-138860000D01*
X133780000Y-138860000D02*
X133936000Y-138860000D01*
G04 #@! TO.C,LED4*
X108721392Y-142092335D02*
G75*
G02X108564484Y-138860000I1078608J1672335D01*
G01*
X110878608Y-142092335D02*
G75*
G03X111035516Y-138860000I-1078608J1672335D01*
G01*
X108720163Y-141461130D02*
G75*
G02X108720000Y-139379039I1079837J1041130D01*
G01*
X110879837Y-141461130D02*
G75*
G03X110880000Y-139379039I-1079837J1041130D01*
G01*
X108564000Y-138860000D02*
X108720000Y-138860000D01*
X110880000Y-138860000D02*
X111036000Y-138860000D01*
G04 #@! TO.C,LED5*
X156680000Y-138860000D02*
X156836000Y-138860000D01*
X154364000Y-138860000D02*
X154520000Y-138860000D01*
X156679837Y-141461130D02*
G75*
G03X156680000Y-139379039I-1079837J1041130D01*
G01*
X154520163Y-141461130D02*
G75*
G02X154520000Y-139379039I1079837J1041130D01*
G01*
X156678608Y-142092335D02*
G75*
G03X156835516Y-138860000I-1078608J1672335D01*
G01*
X154521392Y-142092335D02*
G75*
G02X154364484Y-138860000I1078608J1672335D01*
G01*
G04 #@! TO.C,LED6*
X122330000Y-138860000D02*
X122486000Y-138860000D01*
X120014000Y-138860000D02*
X120170000Y-138860000D01*
X122329837Y-141461130D02*
G75*
G03X122330000Y-139379039I-1079837J1041130D01*
G01*
X120170163Y-141461130D02*
G75*
G02X120170000Y-139379039I1079837J1041130D01*
G01*
X122328608Y-142092335D02*
G75*
G03X122485516Y-138860000I-1078608J1672335D01*
G01*
X120171392Y-142092335D02*
G75*
G02X120014484Y-138860000I1078608J1672335D01*
G01*
G04 #@! TO.C,LED7*
X162510000Y-61620000D02*
X162510000Y-61464000D01*
X165111130Y-61620163D02*
G75*
G03X163029039Y-61620000I-1041130J-1079837D01*
G01*
X162510000Y-63936000D02*
X162510000Y-63780000D01*
X165742335Y-61621392D02*
G75*
G03X162510000Y-61464484I-1672335J-1078608D01*
G01*
X165111130Y-63779837D02*
G75*
G02X163029039Y-63780000I-1041130J1079837D01*
G01*
X165742335Y-63778608D02*
G75*
G02X162510000Y-63935516I-1672335J1078608D01*
G01*
G04 #@! TO.C,LED8*
X154292335Y-63778608D02*
G75*
G02X151060000Y-63935516I-1672335J1078608D01*
G01*
X153661130Y-63779837D02*
G75*
G02X151579039Y-63780000I-1041130J1079837D01*
G01*
X154292335Y-61621392D02*
G75*
G03X151060000Y-61464484I-1672335J-1078608D01*
G01*
X151060000Y-63936000D02*
X151060000Y-63780000D01*
X153661130Y-61620163D02*
G75*
G03X151579039Y-61620000I-1041130J-1079837D01*
G01*
X151060000Y-61620000D02*
X151060000Y-61464000D01*
G04 #@! TO.C,LED9*
X139610000Y-61620000D02*
X139610000Y-61464000D01*
X142211130Y-61620163D02*
G75*
G03X140129039Y-61620000I-1041130J-1079837D01*
G01*
X139610000Y-63936000D02*
X139610000Y-63780000D01*
X142842335Y-61621392D02*
G75*
G03X139610000Y-61464484I-1672335J-1078608D01*
G01*
X142211130Y-63779837D02*
G75*
G02X140129039Y-63780000I-1041130J1079837D01*
G01*
X142842335Y-63778608D02*
G75*
G02X139610000Y-63935516I-1672335J1078608D01*
G01*
G04 #@! TO.C,LED10*
X131392335Y-63778608D02*
G75*
G02X128160000Y-63935516I-1672335J1078608D01*
G01*
X130761130Y-63779837D02*
G75*
G02X128679039Y-63780000I-1041130J1079837D01*
G01*
X131392335Y-61621392D02*
G75*
G03X128160000Y-61464484I-1672335J-1078608D01*
G01*
X128160000Y-63936000D02*
X128160000Y-63780000D01*
X130761130Y-61620163D02*
G75*
G03X128679039Y-61620000I-1041130J-1079837D01*
G01*
X128160000Y-61620000D02*
X128160000Y-61464000D01*
G04 #@! TO.C,LED11*
X116710000Y-61620000D02*
X116710000Y-61464000D01*
X119311130Y-61620163D02*
G75*
G03X117229039Y-61620000I-1041130J-1079837D01*
G01*
X116710000Y-63936000D02*
X116710000Y-63780000D01*
X119942335Y-61621392D02*
G75*
G03X116710000Y-61464484I-1672335J-1078608D01*
G01*
X119311130Y-63779837D02*
G75*
G02X117229039Y-63780000I-1041130J1079837D01*
G01*
X119942335Y-63778608D02*
G75*
G02X116710000Y-63935516I-1672335J1078608D01*
G01*
G04 #@! TO.C,LED12*
X108492335Y-63778608D02*
G75*
G02X105260000Y-63935516I-1672335J1078608D01*
G01*
X107861130Y-63779837D02*
G75*
G02X105779039Y-63780000I-1041130J1079837D01*
G01*
X108492335Y-61621392D02*
G75*
G03X105260000Y-61464484I-1672335J-1078608D01*
G01*
X105260000Y-63936000D02*
X105260000Y-63780000D01*
X107861130Y-61620163D02*
G75*
G03X105779039Y-61620000I-1041130J-1079837D01*
G01*
X105260000Y-61620000D02*
X105260000Y-61464000D01*
D12*
G04 #@! TO.C,R78*
X165450000Y-77400000D02*
X162650000Y-77400000D01*
X165450000Y-104400000D02*
X165450000Y-77400000D01*
X162650000Y-104400000D02*
X165450000Y-104400000D01*
X162650000Y-77500000D02*
X162650000Y-104400000D01*
X159550000Y-73400000D02*
X159550000Y-90900000D01*
X168550000Y-73400000D02*
X159550000Y-73400000D01*
X168550000Y-108400000D02*
X168550000Y-73400000D01*
X159550000Y-108400000D02*
X168550000Y-108400000D01*
X159550000Y-90900000D02*
X159550000Y-108400000D01*
G04 #@! TO.C,R79*
X157100000Y-90900000D02*
X157100000Y-73400000D01*
X157100000Y-73400000D02*
X148100000Y-73400000D01*
X148100000Y-73400000D02*
X148100000Y-108400000D01*
X148100000Y-108400000D02*
X157100000Y-108400000D01*
X157100000Y-108400000D02*
X157100000Y-90900000D01*
X154000000Y-104300000D02*
X154000000Y-77400000D01*
X154000000Y-77400000D02*
X151200000Y-77400000D01*
X151200000Y-77400000D02*
X151200000Y-104400000D01*
X151200000Y-104400000D02*
X154000000Y-104400000D01*
G04 #@! TO.C,R80*
X139750000Y-104400000D02*
X142550000Y-104400000D01*
X139750000Y-77400000D02*
X139750000Y-104400000D01*
X142550000Y-77400000D02*
X139750000Y-77400000D01*
X142550000Y-104300000D02*
X142550000Y-77400000D01*
X145650000Y-108400000D02*
X145650000Y-90900000D01*
X136650000Y-108400000D02*
X145650000Y-108400000D01*
X136650000Y-73400000D02*
X136650000Y-108400000D01*
X145650000Y-73400000D02*
X136650000Y-73400000D01*
X145650000Y-90900000D02*
X145650000Y-73400000D01*
G04 #@! TO.C,R81*
X134200000Y-90900000D02*
X134200000Y-73400000D01*
X134200000Y-73400000D02*
X125200000Y-73400000D01*
X125200000Y-73400000D02*
X125200000Y-108400000D01*
X125200000Y-108400000D02*
X134200000Y-108400000D01*
X134200000Y-108400000D02*
X134200000Y-90900000D01*
X131100000Y-104300000D02*
X131100000Y-77400000D01*
X131100000Y-77400000D02*
X128300000Y-77400000D01*
X128300000Y-77400000D02*
X128300000Y-104400000D01*
X128300000Y-104400000D02*
X131100000Y-104400000D01*
G04 #@! TO.C,R82*
X116850000Y-104400000D02*
X119650000Y-104400000D01*
X116850000Y-77400000D02*
X116850000Y-104400000D01*
X119650000Y-77400000D02*
X116850000Y-77400000D01*
X119650000Y-104300000D02*
X119650000Y-77400000D01*
X122750000Y-108400000D02*
X122750000Y-90900000D01*
X113750000Y-108400000D02*
X122750000Y-108400000D01*
X113750000Y-73400000D02*
X113750000Y-108400000D01*
X122750000Y-73400000D02*
X113750000Y-73400000D01*
X122750000Y-90900000D02*
X122750000Y-73400000D01*
G04 #@! TO.C,R83*
X102300000Y-90900000D02*
X102300000Y-108400000D01*
X102300000Y-108400000D02*
X111300000Y-108400000D01*
X111300000Y-108400000D02*
X111300000Y-73400000D01*
X111300000Y-73400000D02*
X102300000Y-73400000D01*
X102300000Y-73400000D02*
X102300000Y-90900000D01*
X105400000Y-77500000D02*
X105400000Y-104400000D01*
X105400000Y-104400000D02*
X108200000Y-104400000D01*
X108200000Y-104400000D02*
X108200000Y-77400000D01*
X108200000Y-77400000D02*
X105400000Y-77400000D01*
G04 #@! TO.C,SW1*
X165750000Y-69450000D02*
G75*
G03X165750000Y-69450000I-1700000J0D01*
G01*
X164050000Y-69450000D02*
X164050000Y-70450000D01*
X163050000Y-69450000D02*
X165050000Y-69450000D01*
X165050000Y-69450000D02*
X164050000Y-69450000D01*
X164050000Y-69450000D02*
X164050000Y-68450000D01*
X167050000Y-66450000D02*
X167050000Y-72450000D01*
X167050000Y-72450000D02*
X161050000Y-72450000D01*
X161050000Y-72450000D02*
X161050000Y-66450000D01*
X161050000Y-66450000D02*
X167050000Y-66450000D01*
G04 #@! TO.C,SW2*
X149600000Y-66450000D02*
X155600000Y-66450000D01*
X149600000Y-72450000D02*
X149600000Y-66450000D01*
X155600000Y-72450000D02*
X149600000Y-72450000D01*
X155600000Y-66450000D02*
X155600000Y-72450000D01*
X152600000Y-69450000D02*
X152600000Y-68450000D01*
X153600000Y-69450000D02*
X152600000Y-69450000D01*
X151600000Y-69450000D02*
X153600000Y-69450000D01*
X152600000Y-69450000D02*
X152600000Y-70450000D01*
X154300000Y-69450000D02*
G75*
G03X154300000Y-69450000I-1700000J0D01*
G01*
G04 #@! TO.C,SW3*
X138150000Y-66450000D02*
X144150000Y-66450000D01*
X138150000Y-72450000D02*
X138150000Y-66450000D01*
X144150000Y-72450000D02*
X138150000Y-72450000D01*
X144150000Y-66450000D02*
X144150000Y-72450000D01*
X141150000Y-69450000D02*
X141150000Y-68450000D01*
X142150000Y-69450000D02*
X141150000Y-69450000D01*
X140150000Y-69450000D02*
X142150000Y-69450000D01*
X141150000Y-69450000D02*
X141150000Y-70450000D01*
X142850000Y-69450000D02*
G75*
G03X142850000Y-69450000I-1700000J0D01*
G01*
G04 #@! TO.C,SW4*
X131400000Y-69450000D02*
G75*
G03X131400000Y-69450000I-1700000J0D01*
G01*
X129700000Y-69450000D02*
X129700000Y-70450000D01*
X128700000Y-69450000D02*
X130700000Y-69450000D01*
X130700000Y-69450000D02*
X129700000Y-69450000D01*
X129700000Y-69450000D02*
X129700000Y-68450000D01*
X132700000Y-66450000D02*
X132700000Y-72450000D01*
X132700000Y-72450000D02*
X126700000Y-72450000D01*
X126700000Y-72450000D02*
X126700000Y-66450000D01*
X126700000Y-66450000D02*
X132700000Y-66450000D01*
G04 #@! TO.C,SW5*
X115250000Y-66450000D02*
X121250000Y-66450000D01*
X115250000Y-72450000D02*
X115250000Y-66450000D01*
X121250000Y-72450000D02*
X115250000Y-72450000D01*
X121250000Y-66450000D02*
X121250000Y-72450000D01*
X118250000Y-69450000D02*
X118250000Y-68450000D01*
X119250000Y-69450000D02*
X118250000Y-69450000D01*
X117250000Y-69450000D02*
X119250000Y-69450000D01*
X118250000Y-69450000D02*
X118250000Y-70450000D01*
X119950000Y-69450000D02*
G75*
G03X119950000Y-69450000I-1700000J0D01*
G01*
G04 #@! TO.C,SW6*
X108500000Y-69450000D02*
G75*
G03X108500000Y-69450000I-1700000J0D01*
G01*
X106800000Y-69450000D02*
X106800000Y-70450000D01*
X105800000Y-69450000D02*
X107800000Y-69450000D01*
X107800000Y-69450000D02*
X106800000Y-69450000D01*
X106800000Y-69450000D02*
X106800000Y-68450000D01*
X109800000Y-66450000D02*
X109800000Y-72450000D01*
X109800000Y-72450000D02*
X103800000Y-72450000D01*
X103800000Y-72450000D02*
X103800000Y-66450000D01*
X103800000Y-66450000D02*
X109800000Y-66450000D01*
D11*
G04 #@! TO.C,R84*
X169020000Y-45380000D02*
X159080000Y-45380000D01*
X160680000Y-57620000D02*
X159080000Y-57620000D01*
X163179000Y-57620000D02*
X162420000Y-57620000D01*
X165679000Y-57620000D02*
X164920000Y-57620000D01*
X169020000Y-57620000D02*
X167421000Y-57620000D01*
X159080000Y-49245000D02*
X159080000Y-45380000D01*
X159080000Y-57620000D02*
X159080000Y-53755000D01*
X169020000Y-49245000D02*
X169020000Y-45380000D01*
X169020000Y-57620000D02*
X169020000Y-53755000D01*
G04 #@! TO.C,R85*
X157570000Y-57620000D02*
X157570000Y-53755000D01*
X157570000Y-49245000D02*
X157570000Y-45380000D01*
X147630000Y-57620000D02*
X147630000Y-53755000D01*
X147630000Y-49245000D02*
X147630000Y-45380000D01*
X157570000Y-57620000D02*
X155971000Y-57620000D01*
X154229000Y-57620000D02*
X153470000Y-57620000D01*
X151729000Y-57620000D02*
X150970000Y-57620000D01*
X149230000Y-57620000D02*
X147630000Y-57620000D01*
X157570000Y-45380000D02*
X147630000Y-45380000D01*
G04 #@! TO.C,R86*
X146120000Y-45380000D02*
X136180000Y-45380000D01*
X137780000Y-57620000D02*
X136180000Y-57620000D01*
X140279000Y-57620000D02*
X139520000Y-57620000D01*
X142779000Y-57620000D02*
X142020000Y-57620000D01*
X146120000Y-57620000D02*
X144521000Y-57620000D01*
X136180000Y-49245000D02*
X136180000Y-45380000D01*
X136180000Y-57620000D02*
X136180000Y-53755000D01*
X146120000Y-49245000D02*
X146120000Y-45380000D01*
X146120000Y-57620000D02*
X146120000Y-53755000D01*
G04 #@! TO.C,R87*
X134670000Y-57620000D02*
X134670000Y-53755000D01*
X134670000Y-49245000D02*
X134670000Y-45380000D01*
X124730000Y-57620000D02*
X124730000Y-53755000D01*
X124730000Y-49245000D02*
X124730000Y-45380000D01*
X134670000Y-57620000D02*
X133071000Y-57620000D01*
X131329000Y-57620000D02*
X130570000Y-57620000D01*
X128829000Y-57620000D02*
X128070000Y-57620000D01*
X126330000Y-57620000D02*
X124730000Y-57620000D01*
X134670000Y-45380000D02*
X124730000Y-45380000D01*
G04 #@! TO.C,R88*
X123220000Y-45380000D02*
X113280000Y-45380000D01*
X114880000Y-57620000D02*
X113280000Y-57620000D01*
X117379000Y-57620000D02*
X116620000Y-57620000D01*
X119879000Y-57620000D02*
X119120000Y-57620000D01*
X123220000Y-57620000D02*
X121621000Y-57620000D01*
X113280000Y-49245000D02*
X113280000Y-45380000D01*
X113280000Y-57620000D02*
X113280000Y-53755000D01*
X123220000Y-49245000D02*
X123220000Y-45380000D01*
X123220000Y-57620000D02*
X123220000Y-53755000D01*
G04 #@! TO.C,R89*
X111770000Y-57620000D02*
X111770000Y-53755000D01*
X111770000Y-49245000D02*
X111770000Y-45380000D01*
X101830000Y-57620000D02*
X101830000Y-53755000D01*
X101830000Y-49245000D02*
X101830000Y-45380000D01*
X111770000Y-57620000D02*
X110171000Y-57620000D01*
X108429000Y-57620000D02*
X107670000Y-57620000D01*
X105929000Y-57620000D02*
X105170000Y-57620000D01*
X103430000Y-57620000D02*
X101830000Y-57620000D01*
X111770000Y-45380000D02*
X101830000Y-45380000D01*
G04 #@! TO.C,J1*
D13*
X169169350Y-147266733D02*
X169526493Y-147266733D01*
X169597921Y-147242923D01*
X169645540Y-147195304D01*
X169669350Y-147123876D01*
X169669350Y-147076257D01*
X169669350Y-147766733D02*
X169669350Y-147481019D01*
X169669350Y-147623876D02*
X169169350Y-147623876D01*
X169240779Y-147576257D01*
X169288398Y-147528638D01*
X169312207Y-147481019D01*
D14*
X168657142Y-145571428D02*
X167971428Y-145571428D01*
X167414285Y-145380952D02*
X167500000Y-145333333D01*
X167542857Y-145285714D01*
X167585714Y-145190476D01*
X167585714Y-145142857D01*
X167542857Y-145047619D01*
X167500000Y-145000000D01*
X167414285Y-144952380D01*
X167242857Y-144952380D01*
X167157142Y-145000000D01*
X167114285Y-145047619D01*
X167071428Y-145142857D01*
X167071428Y-145190476D01*
X167114285Y-145285714D01*
X167157142Y-145333333D01*
X167242857Y-145380952D01*
X167414285Y-145380952D01*
X167500000Y-145428571D01*
X167542857Y-145476190D01*
X167585714Y-145571428D01*
X167585714Y-145761904D01*
X167542857Y-145857142D01*
X167500000Y-145904761D01*
X167414285Y-145952380D01*
X167242857Y-145952380D01*
X167157142Y-145904761D01*
X167114285Y-145857142D01*
X167071428Y-145761904D01*
X167071428Y-145571428D01*
X167114285Y-145476190D01*
X167157142Y-145428571D01*
X167242857Y-145380952D01*
X166685714Y-145857142D02*
X166642857Y-145904761D01*
X166685714Y-145952380D01*
X166728571Y-145904761D01*
X166685714Y-145857142D01*
X166685714Y-145952380D01*
X165785714Y-145952380D02*
X166300000Y-145952380D01*
X166042857Y-145952380D02*
X166042857Y-144952380D01*
X166128571Y-145095238D01*
X166214285Y-145190476D01*
X166300000Y-145238095D01*
X165528571Y-144952380D02*
X165228571Y-145952380D01*
X164928571Y-144952380D01*
X164071428Y-145285714D02*
X163728571Y-145285714D01*
X163942857Y-144952380D02*
X163942857Y-145809523D01*
X163900000Y-145904761D01*
X163814285Y-145952380D01*
X163728571Y-145952380D01*
X163300000Y-145952380D02*
X163385714Y-145904761D01*
X163428571Y-145857142D01*
X163471428Y-145761904D01*
X163471428Y-145476190D01*
X163428571Y-145380952D01*
X163385714Y-145333333D01*
X163300000Y-145285714D01*
X163171428Y-145285714D01*
X163085714Y-145333333D01*
X163042857Y-145380952D01*
X163000000Y-145476190D01*
X163000000Y-145761904D01*
X163042857Y-145857142D01*
X163085714Y-145904761D01*
X163171428Y-145952380D01*
X163300000Y-145952380D01*
X161800000Y-145380952D02*
X161885714Y-145333333D01*
X161928571Y-145285714D01*
X161971428Y-145190476D01*
X161971428Y-145142857D01*
X161928571Y-145047619D01*
X161885714Y-145000000D01*
X161800000Y-144952380D01*
X161628571Y-144952380D01*
X161542857Y-145000000D01*
X161500000Y-145047619D01*
X161457142Y-145142857D01*
X161457142Y-145190476D01*
X161500000Y-145285714D01*
X161542857Y-145333333D01*
X161628571Y-145380952D01*
X161800000Y-145380952D01*
X161885714Y-145428571D01*
X161928571Y-145476190D01*
X161971428Y-145571428D01*
X161971428Y-145761904D01*
X161928571Y-145857142D01*
X161885714Y-145904761D01*
X161800000Y-145952380D01*
X161628571Y-145952380D01*
X161542857Y-145904761D01*
X161500000Y-145857142D01*
X161457142Y-145761904D01*
X161457142Y-145571428D01*
X161500000Y-145476190D01*
X161542857Y-145428571D01*
X161628571Y-145380952D01*
X161071428Y-145857142D02*
X161028571Y-145904761D01*
X161071428Y-145952380D01*
X161114285Y-145904761D01*
X161071428Y-145857142D01*
X161071428Y-145952380D01*
X160171428Y-145952380D02*
X160685714Y-145952380D01*
X160428571Y-145952380D02*
X160428571Y-144952380D01*
X160514285Y-145095238D01*
X160600000Y-145190476D01*
X160685714Y-145238095D01*
X159914285Y-144952380D02*
X159614285Y-145952380D01*
X159314285Y-144952380D01*
G04 #@! TO.C,J2*
D13*
X157719350Y-147266733D02*
X158076493Y-147266733D01*
X158147921Y-147242923D01*
X158195540Y-147195304D01*
X158219350Y-147123876D01*
X158219350Y-147076257D01*
X157766969Y-147481019D02*
X157743160Y-147504828D01*
X157719350Y-147552447D01*
X157719350Y-147671495D01*
X157743160Y-147719114D01*
X157766969Y-147742923D01*
X157814588Y-147766733D01*
X157862207Y-147766733D01*
X157933636Y-147742923D01*
X158219350Y-147457209D01*
X158219350Y-147766733D01*
D14*
X157207142Y-145571428D02*
X156521428Y-145571428D01*
X155964285Y-145380952D02*
X156050000Y-145333333D01*
X156092857Y-145285714D01*
X156135714Y-145190476D01*
X156135714Y-145142857D01*
X156092857Y-145047619D01*
X156050000Y-145000000D01*
X155964285Y-144952380D01*
X155792857Y-144952380D01*
X155707142Y-145000000D01*
X155664285Y-145047619D01*
X155621428Y-145142857D01*
X155621428Y-145190476D01*
X155664285Y-145285714D01*
X155707142Y-145333333D01*
X155792857Y-145380952D01*
X155964285Y-145380952D01*
X156050000Y-145428571D01*
X156092857Y-145476190D01*
X156135714Y-145571428D01*
X156135714Y-145761904D01*
X156092857Y-145857142D01*
X156050000Y-145904761D01*
X155964285Y-145952380D01*
X155792857Y-145952380D01*
X155707142Y-145904761D01*
X155664285Y-145857142D01*
X155621428Y-145761904D01*
X155621428Y-145571428D01*
X155664285Y-145476190D01*
X155707142Y-145428571D01*
X155792857Y-145380952D01*
X155235714Y-145857142D02*
X155192857Y-145904761D01*
X155235714Y-145952380D01*
X155278571Y-145904761D01*
X155235714Y-145857142D01*
X155235714Y-145952380D01*
X154335714Y-145952380D02*
X154850000Y-145952380D01*
X154592857Y-145952380D02*
X154592857Y-144952380D01*
X154678571Y-145095238D01*
X154764285Y-145190476D01*
X154850000Y-145238095D01*
X154078571Y-144952380D02*
X153778571Y-145952380D01*
X153478571Y-144952380D01*
X152621428Y-145285714D02*
X152278571Y-145285714D01*
X152492857Y-144952380D02*
X152492857Y-145809523D01*
X152450000Y-145904761D01*
X152364285Y-145952380D01*
X152278571Y-145952380D01*
X151850000Y-145952380D02*
X151935714Y-145904761D01*
X151978571Y-145857142D01*
X152021428Y-145761904D01*
X152021428Y-145476190D01*
X151978571Y-145380952D01*
X151935714Y-145333333D01*
X151850000Y-145285714D01*
X151721428Y-145285714D01*
X151635714Y-145333333D01*
X151592857Y-145380952D01*
X151550000Y-145476190D01*
X151550000Y-145761904D01*
X151592857Y-145857142D01*
X151635714Y-145904761D01*
X151721428Y-145952380D01*
X151850000Y-145952380D01*
X150350000Y-145380952D02*
X150435714Y-145333333D01*
X150478571Y-145285714D01*
X150521428Y-145190476D01*
X150521428Y-145142857D01*
X150478571Y-145047619D01*
X150435714Y-145000000D01*
X150350000Y-144952380D01*
X150178571Y-144952380D01*
X150092857Y-145000000D01*
X150050000Y-145047619D01*
X150007142Y-145142857D01*
X150007142Y-145190476D01*
X150050000Y-145285714D01*
X150092857Y-145333333D01*
X150178571Y-145380952D01*
X150350000Y-145380952D01*
X150435714Y-145428571D01*
X150478571Y-145476190D01*
X150521428Y-145571428D01*
X150521428Y-145761904D01*
X150478571Y-145857142D01*
X150435714Y-145904761D01*
X150350000Y-145952380D01*
X150178571Y-145952380D01*
X150092857Y-145904761D01*
X150050000Y-145857142D01*
X150007142Y-145761904D01*
X150007142Y-145571428D01*
X150050000Y-145476190D01*
X150092857Y-145428571D01*
X150178571Y-145380952D01*
X149621428Y-145857142D02*
X149578571Y-145904761D01*
X149621428Y-145952380D01*
X149664285Y-145904761D01*
X149621428Y-145857142D01*
X149621428Y-145952380D01*
X148721428Y-145952380D02*
X149235714Y-145952380D01*
X148978571Y-145952380D02*
X148978571Y-144952380D01*
X149064285Y-145095238D01*
X149150000Y-145190476D01*
X149235714Y-145238095D01*
X148464285Y-144952380D02*
X148164285Y-145952380D01*
X147864285Y-144952380D01*
G04 #@! TO.C,J3*
D13*
X146269350Y-147266733D02*
X146626493Y-147266733D01*
X146697921Y-147242923D01*
X146745540Y-147195304D01*
X146769350Y-147123876D01*
X146769350Y-147076257D01*
X146269350Y-147457209D02*
X146269350Y-147766733D01*
X146459826Y-147600066D01*
X146459826Y-147671495D01*
X146483636Y-147719114D01*
X146507445Y-147742923D01*
X146555064Y-147766733D01*
X146674112Y-147766733D01*
X146721731Y-147742923D01*
X146745540Y-147719114D01*
X146769350Y-147671495D01*
X146769350Y-147528638D01*
X146745540Y-147481019D01*
X146721731Y-147457209D01*
D14*
X145757142Y-145571428D02*
X145071428Y-145571428D01*
X144514285Y-145380952D02*
X144600000Y-145333333D01*
X144642857Y-145285714D01*
X144685714Y-145190476D01*
X144685714Y-145142857D01*
X144642857Y-145047619D01*
X144600000Y-145000000D01*
X144514285Y-144952380D01*
X144342857Y-144952380D01*
X144257142Y-145000000D01*
X144214285Y-145047619D01*
X144171428Y-145142857D01*
X144171428Y-145190476D01*
X144214285Y-145285714D01*
X144257142Y-145333333D01*
X144342857Y-145380952D01*
X144514285Y-145380952D01*
X144600000Y-145428571D01*
X144642857Y-145476190D01*
X144685714Y-145571428D01*
X144685714Y-145761904D01*
X144642857Y-145857142D01*
X144600000Y-145904761D01*
X144514285Y-145952380D01*
X144342857Y-145952380D01*
X144257142Y-145904761D01*
X144214285Y-145857142D01*
X144171428Y-145761904D01*
X144171428Y-145571428D01*
X144214285Y-145476190D01*
X144257142Y-145428571D01*
X144342857Y-145380952D01*
X143785714Y-145857142D02*
X143742857Y-145904761D01*
X143785714Y-145952380D01*
X143828571Y-145904761D01*
X143785714Y-145857142D01*
X143785714Y-145952380D01*
X142885714Y-145952380D02*
X143400000Y-145952380D01*
X143142857Y-145952380D02*
X143142857Y-144952380D01*
X143228571Y-145095238D01*
X143314285Y-145190476D01*
X143400000Y-145238095D01*
X142628571Y-144952380D02*
X142328571Y-145952380D01*
X142028571Y-144952380D01*
X141171428Y-145285714D02*
X140828571Y-145285714D01*
X141042857Y-144952380D02*
X141042857Y-145809523D01*
X141000000Y-145904761D01*
X140914285Y-145952380D01*
X140828571Y-145952380D01*
X140400000Y-145952380D02*
X140485714Y-145904761D01*
X140528571Y-145857142D01*
X140571428Y-145761904D01*
X140571428Y-145476190D01*
X140528571Y-145380952D01*
X140485714Y-145333333D01*
X140400000Y-145285714D01*
X140271428Y-145285714D01*
X140185714Y-145333333D01*
X140142857Y-145380952D01*
X140100000Y-145476190D01*
X140100000Y-145761904D01*
X140142857Y-145857142D01*
X140185714Y-145904761D01*
X140271428Y-145952380D01*
X140400000Y-145952380D01*
X138900000Y-145380952D02*
X138985714Y-145333333D01*
X139028571Y-145285714D01*
X139071428Y-145190476D01*
X139071428Y-145142857D01*
X139028571Y-145047619D01*
X138985714Y-145000000D01*
X138900000Y-144952380D01*
X138728571Y-144952380D01*
X138642857Y-145000000D01*
X138600000Y-145047619D01*
X138557142Y-145142857D01*
X138557142Y-145190476D01*
X138600000Y-145285714D01*
X138642857Y-145333333D01*
X138728571Y-145380952D01*
X138900000Y-145380952D01*
X138985714Y-145428571D01*
X139028571Y-145476190D01*
X139071428Y-145571428D01*
X139071428Y-145761904D01*
X139028571Y-145857142D01*
X138985714Y-145904761D01*
X138900000Y-145952380D01*
X138728571Y-145952380D01*
X138642857Y-145904761D01*
X138600000Y-145857142D01*
X138557142Y-145761904D01*
X138557142Y-145571428D01*
X138600000Y-145476190D01*
X138642857Y-145428571D01*
X138728571Y-145380952D01*
X138171428Y-145857142D02*
X138128571Y-145904761D01*
X138171428Y-145952380D01*
X138214285Y-145904761D01*
X138171428Y-145857142D01*
X138171428Y-145952380D01*
X137271428Y-145952380D02*
X137785714Y-145952380D01*
X137528571Y-145952380D02*
X137528571Y-144952380D01*
X137614285Y-145095238D01*
X137700000Y-145190476D01*
X137785714Y-145238095D01*
X137014285Y-144952380D02*
X136714285Y-145952380D01*
X136414285Y-144952380D01*
G04 #@! TO.C,J4*
D13*
X134819350Y-147266733D02*
X135176493Y-147266733D01*
X135247921Y-147242923D01*
X135295540Y-147195304D01*
X135319350Y-147123876D01*
X135319350Y-147076257D01*
X134986017Y-147719114D02*
X135319350Y-147719114D01*
X134795540Y-147600066D02*
X135152683Y-147481019D01*
X135152683Y-147790542D01*
D14*
X134307142Y-145571428D02*
X133621428Y-145571428D01*
X133064285Y-145380952D02*
X133150000Y-145333333D01*
X133192857Y-145285714D01*
X133235714Y-145190476D01*
X133235714Y-145142857D01*
X133192857Y-145047619D01*
X133150000Y-145000000D01*
X133064285Y-144952380D01*
X132892857Y-144952380D01*
X132807142Y-145000000D01*
X132764285Y-145047619D01*
X132721428Y-145142857D01*
X132721428Y-145190476D01*
X132764285Y-145285714D01*
X132807142Y-145333333D01*
X132892857Y-145380952D01*
X133064285Y-145380952D01*
X133150000Y-145428571D01*
X133192857Y-145476190D01*
X133235714Y-145571428D01*
X133235714Y-145761904D01*
X133192857Y-145857142D01*
X133150000Y-145904761D01*
X133064285Y-145952380D01*
X132892857Y-145952380D01*
X132807142Y-145904761D01*
X132764285Y-145857142D01*
X132721428Y-145761904D01*
X132721428Y-145571428D01*
X132764285Y-145476190D01*
X132807142Y-145428571D01*
X132892857Y-145380952D01*
X132335714Y-145857142D02*
X132292857Y-145904761D01*
X132335714Y-145952380D01*
X132378571Y-145904761D01*
X132335714Y-145857142D01*
X132335714Y-145952380D01*
X131435714Y-145952380D02*
X131950000Y-145952380D01*
X131692857Y-145952380D02*
X131692857Y-144952380D01*
X131778571Y-145095238D01*
X131864285Y-145190476D01*
X131950000Y-145238095D01*
X131178571Y-144952380D02*
X130878571Y-145952380D01*
X130578571Y-144952380D01*
X129721428Y-145285714D02*
X129378571Y-145285714D01*
X129592857Y-144952380D02*
X129592857Y-145809523D01*
X129550000Y-145904761D01*
X129464285Y-145952380D01*
X129378571Y-145952380D01*
X128950000Y-145952380D02*
X129035714Y-145904761D01*
X129078571Y-145857142D01*
X129121428Y-145761904D01*
X129121428Y-145476190D01*
X129078571Y-145380952D01*
X129035714Y-145333333D01*
X128950000Y-145285714D01*
X128821428Y-145285714D01*
X128735714Y-145333333D01*
X128692857Y-145380952D01*
X128650000Y-145476190D01*
X128650000Y-145761904D01*
X128692857Y-145857142D01*
X128735714Y-145904761D01*
X128821428Y-145952380D01*
X128950000Y-145952380D01*
X127450000Y-145380952D02*
X127535714Y-145333333D01*
X127578571Y-145285714D01*
X127621428Y-145190476D01*
X127621428Y-145142857D01*
X127578571Y-145047619D01*
X127535714Y-145000000D01*
X127450000Y-144952380D01*
X127278571Y-144952380D01*
X127192857Y-145000000D01*
X127150000Y-145047619D01*
X127107142Y-145142857D01*
X127107142Y-145190476D01*
X127150000Y-145285714D01*
X127192857Y-145333333D01*
X127278571Y-145380952D01*
X127450000Y-145380952D01*
X127535714Y-145428571D01*
X127578571Y-145476190D01*
X127621428Y-145571428D01*
X127621428Y-145761904D01*
X127578571Y-145857142D01*
X127535714Y-145904761D01*
X127450000Y-145952380D01*
X127278571Y-145952380D01*
X127192857Y-145904761D01*
X127150000Y-145857142D01*
X127107142Y-145761904D01*
X127107142Y-145571428D01*
X127150000Y-145476190D01*
X127192857Y-145428571D01*
X127278571Y-145380952D01*
X126721428Y-145857142D02*
X126678571Y-145904761D01*
X126721428Y-145952380D01*
X126764285Y-145904761D01*
X126721428Y-145857142D01*
X126721428Y-145952380D01*
X125821428Y-145952380D02*
X126335714Y-145952380D01*
X126078571Y-145952380D02*
X126078571Y-144952380D01*
X126164285Y-145095238D01*
X126250000Y-145190476D01*
X126335714Y-145238095D01*
X125564285Y-144952380D02*
X125264285Y-145952380D01*
X124964285Y-144952380D01*
G04 #@! TO.C,J5*
D13*
X123369350Y-147266733D02*
X123726493Y-147266733D01*
X123797921Y-147242923D01*
X123845540Y-147195304D01*
X123869350Y-147123876D01*
X123869350Y-147076257D01*
X123369350Y-147742923D02*
X123369350Y-147504828D01*
X123607445Y-147481019D01*
X123583636Y-147504828D01*
X123559826Y-147552447D01*
X123559826Y-147671495D01*
X123583636Y-147719114D01*
X123607445Y-147742923D01*
X123655064Y-147766733D01*
X123774112Y-147766733D01*
X123821731Y-147742923D01*
X123845540Y-147719114D01*
X123869350Y-147671495D01*
X123869350Y-147552447D01*
X123845540Y-147504828D01*
X123821731Y-147481019D01*
D14*
X122857142Y-145571428D02*
X122171428Y-145571428D01*
X121614285Y-145380952D02*
X121700000Y-145333333D01*
X121742857Y-145285714D01*
X121785714Y-145190476D01*
X121785714Y-145142857D01*
X121742857Y-145047619D01*
X121700000Y-145000000D01*
X121614285Y-144952380D01*
X121442857Y-144952380D01*
X121357142Y-145000000D01*
X121314285Y-145047619D01*
X121271428Y-145142857D01*
X121271428Y-145190476D01*
X121314285Y-145285714D01*
X121357142Y-145333333D01*
X121442857Y-145380952D01*
X121614285Y-145380952D01*
X121700000Y-145428571D01*
X121742857Y-145476190D01*
X121785714Y-145571428D01*
X121785714Y-145761904D01*
X121742857Y-145857142D01*
X121700000Y-145904761D01*
X121614285Y-145952380D01*
X121442857Y-145952380D01*
X121357142Y-145904761D01*
X121314285Y-145857142D01*
X121271428Y-145761904D01*
X121271428Y-145571428D01*
X121314285Y-145476190D01*
X121357142Y-145428571D01*
X121442857Y-145380952D01*
X120885714Y-145857142D02*
X120842857Y-145904761D01*
X120885714Y-145952380D01*
X120928571Y-145904761D01*
X120885714Y-145857142D01*
X120885714Y-145952380D01*
X119985714Y-145952380D02*
X120500000Y-145952380D01*
X120242857Y-145952380D02*
X120242857Y-144952380D01*
X120328571Y-145095238D01*
X120414285Y-145190476D01*
X120500000Y-145238095D01*
X119728571Y-144952380D02*
X119428571Y-145952380D01*
X119128571Y-144952380D01*
X118271428Y-145285714D02*
X117928571Y-145285714D01*
X118142857Y-144952380D02*
X118142857Y-145809523D01*
X118100000Y-145904761D01*
X118014285Y-145952380D01*
X117928571Y-145952380D01*
X117500000Y-145952380D02*
X117585714Y-145904761D01*
X117628571Y-145857142D01*
X117671428Y-145761904D01*
X117671428Y-145476190D01*
X117628571Y-145380952D01*
X117585714Y-145333333D01*
X117500000Y-145285714D01*
X117371428Y-145285714D01*
X117285714Y-145333333D01*
X117242857Y-145380952D01*
X117200000Y-145476190D01*
X117200000Y-145761904D01*
X117242857Y-145857142D01*
X117285714Y-145904761D01*
X117371428Y-145952380D01*
X117500000Y-145952380D01*
X116000000Y-145380952D02*
X116085714Y-145333333D01*
X116128571Y-145285714D01*
X116171428Y-145190476D01*
X116171428Y-145142857D01*
X116128571Y-145047619D01*
X116085714Y-145000000D01*
X116000000Y-144952380D01*
X115828571Y-144952380D01*
X115742857Y-145000000D01*
X115700000Y-145047619D01*
X115657142Y-145142857D01*
X115657142Y-145190476D01*
X115700000Y-145285714D01*
X115742857Y-145333333D01*
X115828571Y-145380952D01*
X116000000Y-145380952D01*
X116085714Y-145428571D01*
X116128571Y-145476190D01*
X116171428Y-145571428D01*
X116171428Y-145761904D01*
X116128571Y-145857142D01*
X116085714Y-145904761D01*
X116000000Y-145952380D01*
X115828571Y-145952380D01*
X115742857Y-145904761D01*
X115700000Y-145857142D01*
X115657142Y-145761904D01*
X115657142Y-145571428D01*
X115700000Y-145476190D01*
X115742857Y-145428571D01*
X115828571Y-145380952D01*
X115271428Y-145857142D02*
X115228571Y-145904761D01*
X115271428Y-145952380D01*
X115314285Y-145904761D01*
X115271428Y-145857142D01*
X115271428Y-145952380D01*
X114371428Y-145952380D02*
X114885714Y-145952380D01*
X114628571Y-145952380D02*
X114628571Y-144952380D01*
X114714285Y-145095238D01*
X114800000Y-145190476D01*
X114885714Y-145238095D01*
X114114285Y-144952380D02*
X113814285Y-145952380D01*
X113514285Y-144952380D01*
G04 #@! TO.C,J6*
D13*
X111919350Y-147266733D02*
X112276493Y-147266733D01*
X112347921Y-147242923D01*
X112395540Y-147195304D01*
X112419350Y-147123876D01*
X112419350Y-147076257D01*
X111919350Y-147719114D02*
X111919350Y-147623876D01*
X111943160Y-147576257D01*
X111966969Y-147552447D01*
X112038398Y-147504828D01*
X112133636Y-147481019D01*
X112324112Y-147481019D01*
X112371731Y-147504828D01*
X112395540Y-147528638D01*
X112419350Y-147576257D01*
X112419350Y-147671495D01*
X112395540Y-147719114D01*
X112371731Y-147742923D01*
X112324112Y-147766733D01*
X112205064Y-147766733D01*
X112157445Y-147742923D01*
X112133636Y-147719114D01*
X112109826Y-147671495D01*
X112109826Y-147576257D01*
X112133636Y-147528638D01*
X112157445Y-147504828D01*
X112205064Y-147481019D01*
D14*
X111407142Y-145571428D02*
X110721428Y-145571428D01*
X110164285Y-145380952D02*
X110250000Y-145333333D01*
X110292857Y-145285714D01*
X110335714Y-145190476D01*
X110335714Y-145142857D01*
X110292857Y-145047619D01*
X110250000Y-145000000D01*
X110164285Y-144952380D01*
X109992857Y-144952380D01*
X109907142Y-145000000D01*
X109864285Y-145047619D01*
X109821428Y-145142857D01*
X109821428Y-145190476D01*
X109864285Y-145285714D01*
X109907142Y-145333333D01*
X109992857Y-145380952D01*
X110164285Y-145380952D01*
X110250000Y-145428571D01*
X110292857Y-145476190D01*
X110335714Y-145571428D01*
X110335714Y-145761904D01*
X110292857Y-145857142D01*
X110250000Y-145904761D01*
X110164285Y-145952380D01*
X109992857Y-145952380D01*
X109907142Y-145904761D01*
X109864285Y-145857142D01*
X109821428Y-145761904D01*
X109821428Y-145571428D01*
X109864285Y-145476190D01*
X109907142Y-145428571D01*
X109992857Y-145380952D01*
X109435714Y-145857142D02*
X109392857Y-145904761D01*
X109435714Y-145952380D01*
X109478571Y-145904761D01*
X109435714Y-145857142D01*
X109435714Y-145952380D01*
X108535714Y-145952380D02*
X109050000Y-145952380D01*
X108792857Y-145952380D02*
X108792857Y-144952380D01*
X108878571Y-145095238D01*
X108964285Y-145190476D01*
X109050000Y-145238095D01*
X108278571Y-144952380D02*
X107978571Y-145952380D01*
X107678571Y-144952380D01*
X106821428Y-145285714D02*
X106478571Y-145285714D01*
X106692857Y-144952380D02*
X106692857Y-145809523D01*
X106650000Y-145904761D01*
X106564285Y-145952380D01*
X106478571Y-145952380D01*
X106050000Y-145952380D02*
X106135714Y-145904761D01*
X106178571Y-145857142D01*
X106221428Y-145761904D01*
X106221428Y-145476190D01*
X106178571Y-145380952D01*
X106135714Y-145333333D01*
X106050000Y-145285714D01*
X105921428Y-145285714D01*
X105835714Y-145333333D01*
X105792857Y-145380952D01*
X105750000Y-145476190D01*
X105750000Y-145761904D01*
X105792857Y-145857142D01*
X105835714Y-145904761D01*
X105921428Y-145952380D01*
X106050000Y-145952380D01*
X104550000Y-145380952D02*
X104635714Y-145333333D01*
X104678571Y-145285714D01*
X104721428Y-145190476D01*
X104721428Y-145142857D01*
X104678571Y-145047619D01*
X104635714Y-145000000D01*
X104550000Y-144952380D01*
X104378571Y-144952380D01*
X104292857Y-145000000D01*
X104250000Y-145047619D01*
X104207142Y-145142857D01*
X104207142Y-145190476D01*
X104250000Y-145285714D01*
X104292857Y-145333333D01*
X104378571Y-145380952D01*
X104550000Y-145380952D01*
X104635714Y-145428571D01*
X104678571Y-145476190D01*
X104721428Y-145571428D01*
X104721428Y-145761904D01*
X104678571Y-145857142D01*
X104635714Y-145904761D01*
X104550000Y-145952380D01*
X104378571Y-145952380D01*
X104292857Y-145904761D01*
X104250000Y-145857142D01*
X104207142Y-145761904D01*
X104207142Y-145571428D01*
X104250000Y-145476190D01*
X104292857Y-145428571D01*
X104378571Y-145380952D01*
X103821428Y-145857142D02*
X103778571Y-145904761D01*
X103821428Y-145952380D01*
X103864285Y-145904761D01*
X103821428Y-145857142D01*
X103821428Y-145952380D01*
X102921428Y-145952380D02*
X103435714Y-145952380D01*
X103178571Y-145952380D02*
X103178571Y-144952380D01*
X103264285Y-145095238D01*
X103350000Y-145190476D01*
X103435714Y-145238095D01*
X102664285Y-144952380D02*
X102364285Y-145952380D01*
X102064285Y-144952380D01*
G04 #@! TO.C,J7*
D13*
X169169350Y-132666733D02*
X169526493Y-132666733D01*
X169597921Y-132642923D01*
X169645540Y-132595304D01*
X169669350Y-132523876D01*
X169669350Y-132476257D01*
X169169350Y-132857209D02*
X169169350Y-133190542D01*
X169669350Y-132976257D01*
D14*
X171892857Y-130352380D02*
X171678571Y-131352380D01*
X171507142Y-130638095D01*
X171335714Y-131352380D01*
X171121428Y-130352380D01*
X170178571Y-131447619D02*
X170264285Y-131400000D01*
X170350000Y-131304761D01*
X170478571Y-131161904D01*
X170564285Y-131114285D01*
X170650000Y-131114285D01*
X170607142Y-131352380D02*
X170692857Y-131304761D01*
X170778571Y-131209523D01*
X170821428Y-131019047D01*
X170821428Y-130685714D01*
X170778571Y-130495238D01*
X170692857Y-130400000D01*
X170607142Y-130352380D01*
X170435714Y-130352380D01*
X170350000Y-130400000D01*
X170264285Y-130495238D01*
X170221428Y-130685714D01*
X170221428Y-131019047D01*
X170264285Y-131209523D01*
X170350000Y-131304761D01*
X170435714Y-131352380D01*
X170607142Y-131352380D01*
X169835714Y-131352380D02*
X169835714Y-130352380D01*
X169492857Y-130352380D01*
X169407142Y-130400000D01*
X169364285Y-130447619D01*
X169321428Y-130542857D01*
X169321428Y-130685714D01*
X169364285Y-130780952D01*
X169407142Y-130828571D01*
X169492857Y-130876190D01*
X169835714Y-130876190D01*
X168935714Y-130971428D02*
X168250000Y-130971428D01*
X167821428Y-131352380D02*
X167821428Y-130352380D01*
X167478571Y-130352380D01*
X167392857Y-130400000D01*
X167350000Y-130447619D01*
X167307142Y-130542857D01*
X167307142Y-130685714D01*
X167350000Y-130780952D01*
X167392857Y-130828571D01*
X167478571Y-130876190D01*
X167821428Y-130876190D01*
X166664285Y-130352380D02*
X166664285Y-131066666D01*
X166707142Y-131209523D01*
X166792857Y-131304761D01*
X166921428Y-131352380D01*
X167007142Y-131352380D01*
X166321428Y-130352380D02*
X165764285Y-130352380D01*
X166064285Y-130733333D01*
X165935714Y-130733333D01*
X165850000Y-130780952D01*
X165807142Y-130828571D01*
X165764285Y-130923809D01*
X165764285Y-131161904D01*
X165807142Y-131257142D01*
X165850000Y-131304761D01*
X165935714Y-131352380D01*
X166192857Y-131352380D01*
X166278571Y-131304761D01*
X166321428Y-131257142D01*
X165207142Y-130352380D02*
X165121428Y-130352380D01*
X165035714Y-130400000D01*
X164992857Y-130447619D01*
X164950000Y-130542857D01*
X164907142Y-130733333D01*
X164907142Y-130971428D01*
X164950000Y-131161904D01*
X164992857Y-131257142D01*
X165035714Y-131304761D01*
X165121428Y-131352380D01*
X165207142Y-131352380D01*
X165292857Y-131304761D01*
X165335714Y-131257142D01*
X165378571Y-131161904D01*
X165421428Y-130971428D01*
X165421428Y-130733333D01*
X165378571Y-130542857D01*
X165335714Y-130447619D01*
X165292857Y-130400000D01*
X165207142Y-130352380D01*
X164050000Y-131352380D02*
X164564285Y-131352380D01*
X164307142Y-131352380D02*
X164307142Y-130352380D01*
X164392857Y-130495238D01*
X164478571Y-130590476D01*
X164564285Y-130638095D01*
X163664285Y-131352380D02*
X163664285Y-130352380D01*
X163364285Y-131066666D01*
X163064285Y-130352380D01*
X163064285Y-131352380D01*
X162635714Y-130971428D02*
X161950000Y-130971428D01*
X161050000Y-131352380D02*
X161564285Y-131352380D01*
X161307142Y-131352380D02*
X161307142Y-130352380D01*
X161392857Y-130495238D01*
X161478571Y-130590476D01*
X161564285Y-130638095D01*
X160707142Y-130447619D02*
X160664285Y-130400000D01*
X160578571Y-130352380D01*
X160364285Y-130352380D01*
X160278571Y-130400000D01*
X160235714Y-130447619D01*
X160192857Y-130542857D01*
X160192857Y-130638095D01*
X160235714Y-130780952D01*
X160750000Y-131352380D01*
X160192857Y-131352380D01*
X160021428Y-131447619D02*
X159335714Y-131447619D01*
X158864285Y-130352380D02*
X158864285Y-131066666D01*
X158907142Y-131209523D01*
X158992857Y-131304761D01*
X159121428Y-131352380D01*
X159207142Y-131352380D01*
X158478571Y-131066666D02*
X158050000Y-131066666D01*
X158564285Y-131352380D02*
X158264285Y-130352380D01*
X157964285Y-131352380D01*
X157150000Y-131257142D02*
X157192857Y-131304761D01*
X157321428Y-131352380D01*
X157407142Y-131352380D01*
X157535714Y-131304761D01*
X157621428Y-131209523D01*
X157664285Y-131114285D01*
X157707142Y-130923809D01*
X157707142Y-130780952D01*
X157664285Y-130590476D01*
X157621428Y-130495238D01*
X157535714Y-130400000D01*
X157407142Y-130352380D01*
X157321428Y-130352380D01*
X157192857Y-130400000D01*
X157150000Y-130447619D01*
X156764285Y-131352380D02*
X156764285Y-130352380D01*
X156250000Y-131352380D02*
X156635714Y-130780952D01*
X156250000Y-130352380D02*
X156764285Y-130923809D01*
G04 #@! TO.C,J8*
D13*
X157719350Y-132666733D02*
X158076493Y-132666733D01*
X158147921Y-132642923D01*
X158195540Y-132595304D01*
X158219350Y-132523876D01*
X158219350Y-132476257D01*
X157933636Y-132976257D02*
X157909826Y-132928638D01*
X157886017Y-132904828D01*
X157838398Y-132881019D01*
X157814588Y-132881019D01*
X157766969Y-132904828D01*
X157743160Y-132928638D01*
X157719350Y-132976257D01*
X157719350Y-133071495D01*
X157743160Y-133119114D01*
X157766969Y-133142923D01*
X157814588Y-133166733D01*
X157838398Y-133166733D01*
X157886017Y-133142923D01*
X157909826Y-133119114D01*
X157933636Y-133071495D01*
X157933636Y-132976257D01*
X157957445Y-132928638D01*
X157981255Y-132904828D01*
X158028874Y-132881019D01*
X158124112Y-132881019D01*
X158171731Y-132904828D01*
X158195540Y-132928638D01*
X158219350Y-132976257D01*
X158219350Y-133071495D01*
X158195540Y-133119114D01*
X158171731Y-133142923D01*
X158124112Y-133166733D01*
X158028874Y-133166733D01*
X157981255Y-133142923D01*
X157957445Y-133119114D01*
X157933636Y-133071495D01*
D14*
X160442857Y-130352380D02*
X160228571Y-131352380D01*
X160057142Y-130638095D01*
X159885714Y-131352380D01*
X159671428Y-130352380D01*
X158728571Y-131447619D02*
X158814285Y-131400000D01*
X158900000Y-131304761D01*
X159028571Y-131161904D01*
X159114285Y-131114285D01*
X159200000Y-131114285D01*
X159157142Y-131352380D02*
X159242857Y-131304761D01*
X159328571Y-131209523D01*
X159371428Y-131019047D01*
X159371428Y-130685714D01*
X159328571Y-130495238D01*
X159242857Y-130400000D01*
X159157142Y-130352380D01*
X158985714Y-130352380D01*
X158900000Y-130400000D01*
X158814285Y-130495238D01*
X158771428Y-130685714D01*
X158771428Y-131019047D01*
X158814285Y-131209523D01*
X158900000Y-131304761D01*
X158985714Y-131352380D01*
X159157142Y-131352380D01*
X158385714Y-131352380D02*
X158385714Y-130352380D01*
X158042857Y-130352380D01*
X157957142Y-130400000D01*
X157914285Y-130447619D01*
X157871428Y-130542857D01*
X157871428Y-130685714D01*
X157914285Y-130780952D01*
X157957142Y-130828571D01*
X158042857Y-130876190D01*
X158385714Y-130876190D01*
X157485714Y-130971428D02*
X156800000Y-130971428D01*
X156371428Y-131352380D02*
X156371428Y-130352380D01*
X156028571Y-130352380D01*
X155942857Y-130400000D01*
X155900000Y-130447619D01*
X155857142Y-130542857D01*
X155857142Y-130685714D01*
X155900000Y-130780952D01*
X155942857Y-130828571D01*
X156028571Y-130876190D01*
X156371428Y-130876190D01*
X155214285Y-130352380D02*
X155214285Y-131066666D01*
X155257142Y-131209523D01*
X155342857Y-131304761D01*
X155471428Y-131352380D01*
X155557142Y-131352380D01*
X154871428Y-130352380D02*
X154314285Y-130352380D01*
X154614285Y-130733333D01*
X154485714Y-130733333D01*
X154400000Y-130780952D01*
X154357142Y-130828571D01*
X154314285Y-130923809D01*
X154314285Y-131161904D01*
X154357142Y-131257142D01*
X154400000Y-131304761D01*
X154485714Y-131352380D01*
X154742857Y-131352380D01*
X154828571Y-131304761D01*
X154871428Y-131257142D01*
X153757142Y-130352380D02*
X153671428Y-130352380D01*
X153585714Y-130400000D01*
X153542857Y-130447619D01*
X153500000Y-130542857D01*
X153457142Y-130733333D01*
X153457142Y-130971428D01*
X153500000Y-131161904D01*
X153542857Y-131257142D01*
X153585714Y-131304761D01*
X153671428Y-131352380D01*
X153757142Y-131352380D01*
X153842857Y-131304761D01*
X153885714Y-131257142D01*
X153928571Y-131161904D01*
X153971428Y-130971428D01*
X153971428Y-130733333D01*
X153928571Y-130542857D01*
X153885714Y-130447619D01*
X153842857Y-130400000D01*
X153757142Y-130352380D01*
X152600000Y-131352380D02*
X153114285Y-131352380D01*
X152857142Y-131352380D02*
X152857142Y-130352380D01*
X152942857Y-130495238D01*
X153028571Y-130590476D01*
X153114285Y-130638095D01*
X152214285Y-131352380D02*
X152214285Y-130352380D01*
X151914285Y-131066666D01*
X151614285Y-130352380D01*
X151614285Y-131352380D01*
X151185714Y-130971428D02*
X150500000Y-130971428D01*
X149600000Y-131352380D02*
X150114285Y-131352380D01*
X149857142Y-131352380D02*
X149857142Y-130352380D01*
X149942857Y-130495238D01*
X150028571Y-130590476D01*
X150114285Y-130638095D01*
X149257142Y-130447619D02*
X149214285Y-130400000D01*
X149128571Y-130352380D01*
X148914285Y-130352380D01*
X148828571Y-130400000D01*
X148785714Y-130447619D01*
X148742857Y-130542857D01*
X148742857Y-130638095D01*
X148785714Y-130780952D01*
X149300000Y-131352380D01*
X148742857Y-131352380D01*
X148571428Y-131447619D02*
X147885714Y-131447619D01*
X147414285Y-130352380D02*
X147414285Y-131066666D01*
X147457142Y-131209523D01*
X147542857Y-131304761D01*
X147671428Y-131352380D01*
X147757142Y-131352380D01*
X147028571Y-131066666D02*
X146600000Y-131066666D01*
X147114285Y-131352380D02*
X146814285Y-130352380D01*
X146514285Y-131352380D01*
X145700000Y-131257142D02*
X145742857Y-131304761D01*
X145871428Y-131352380D01*
X145957142Y-131352380D01*
X146085714Y-131304761D01*
X146171428Y-131209523D01*
X146214285Y-131114285D01*
X146257142Y-130923809D01*
X146257142Y-130780952D01*
X146214285Y-130590476D01*
X146171428Y-130495238D01*
X146085714Y-130400000D01*
X145957142Y-130352380D01*
X145871428Y-130352380D01*
X145742857Y-130400000D01*
X145700000Y-130447619D01*
X145314285Y-131352380D02*
X145314285Y-130352380D01*
X144800000Y-131352380D02*
X145185714Y-130780952D01*
X144800000Y-130352380D02*
X145314285Y-130923809D01*
G04 #@! TO.C,J9*
D13*
X146269350Y-132666733D02*
X146626493Y-132666733D01*
X146697921Y-132642923D01*
X146745540Y-132595304D01*
X146769350Y-132523876D01*
X146769350Y-132476257D01*
X146769350Y-132928638D02*
X146769350Y-133023876D01*
X146745540Y-133071495D01*
X146721731Y-133095304D01*
X146650302Y-133142923D01*
X146555064Y-133166733D01*
X146364588Y-133166733D01*
X146316969Y-133142923D01*
X146293160Y-133119114D01*
X146269350Y-133071495D01*
X146269350Y-132976257D01*
X146293160Y-132928638D01*
X146316969Y-132904828D01*
X146364588Y-132881019D01*
X146483636Y-132881019D01*
X146531255Y-132904828D01*
X146555064Y-132928638D01*
X146578874Y-132976257D01*
X146578874Y-133071495D01*
X146555064Y-133119114D01*
X146531255Y-133142923D01*
X146483636Y-133166733D01*
D14*
X148992857Y-130352380D02*
X148778571Y-131352380D01*
X148607142Y-130638095D01*
X148435714Y-131352380D01*
X148221428Y-130352380D01*
X147278571Y-131447619D02*
X147364285Y-131400000D01*
X147450000Y-131304761D01*
X147578571Y-131161904D01*
X147664285Y-131114285D01*
X147750000Y-131114285D01*
X147707142Y-131352380D02*
X147792857Y-131304761D01*
X147878571Y-131209523D01*
X147921428Y-131019047D01*
X147921428Y-130685714D01*
X147878571Y-130495238D01*
X147792857Y-130400000D01*
X147707142Y-130352380D01*
X147535714Y-130352380D01*
X147450000Y-130400000D01*
X147364285Y-130495238D01*
X147321428Y-130685714D01*
X147321428Y-131019047D01*
X147364285Y-131209523D01*
X147450000Y-131304761D01*
X147535714Y-131352380D01*
X147707142Y-131352380D01*
X146935714Y-131352380D02*
X146935714Y-130352380D01*
X146592857Y-130352380D01*
X146507142Y-130400000D01*
X146464285Y-130447619D01*
X146421428Y-130542857D01*
X146421428Y-130685714D01*
X146464285Y-130780952D01*
X146507142Y-130828571D01*
X146592857Y-130876190D01*
X146935714Y-130876190D01*
X146035714Y-130971428D02*
X145350000Y-130971428D01*
X144921428Y-131352380D02*
X144921428Y-130352380D01*
X144578571Y-130352380D01*
X144492857Y-130400000D01*
X144450000Y-130447619D01*
X144407142Y-130542857D01*
X144407142Y-130685714D01*
X144450000Y-130780952D01*
X144492857Y-130828571D01*
X144578571Y-130876190D01*
X144921428Y-130876190D01*
X143764285Y-130352380D02*
X143764285Y-131066666D01*
X143807142Y-131209523D01*
X143892857Y-131304761D01*
X144021428Y-131352380D01*
X144107142Y-131352380D01*
X143421428Y-130352380D02*
X142864285Y-130352380D01*
X143164285Y-130733333D01*
X143035714Y-130733333D01*
X142950000Y-130780952D01*
X142907142Y-130828571D01*
X142864285Y-130923809D01*
X142864285Y-131161904D01*
X142907142Y-131257142D01*
X142950000Y-131304761D01*
X143035714Y-131352380D01*
X143292857Y-131352380D01*
X143378571Y-131304761D01*
X143421428Y-131257142D01*
X142307142Y-130352380D02*
X142221428Y-130352380D01*
X142135714Y-130400000D01*
X142092857Y-130447619D01*
X142050000Y-130542857D01*
X142007142Y-130733333D01*
X142007142Y-130971428D01*
X142050000Y-131161904D01*
X142092857Y-131257142D01*
X142135714Y-131304761D01*
X142221428Y-131352380D01*
X142307142Y-131352380D01*
X142392857Y-131304761D01*
X142435714Y-131257142D01*
X142478571Y-131161904D01*
X142521428Y-130971428D01*
X142521428Y-130733333D01*
X142478571Y-130542857D01*
X142435714Y-130447619D01*
X142392857Y-130400000D01*
X142307142Y-130352380D01*
X141150000Y-131352380D02*
X141664285Y-131352380D01*
X141407142Y-131352380D02*
X141407142Y-130352380D01*
X141492857Y-130495238D01*
X141578571Y-130590476D01*
X141664285Y-130638095D01*
X140764285Y-131352380D02*
X140764285Y-130352380D01*
X140464285Y-131066666D01*
X140164285Y-130352380D01*
X140164285Y-131352380D01*
X139735714Y-130971428D02*
X139050000Y-130971428D01*
X138150000Y-131352380D02*
X138664285Y-131352380D01*
X138407142Y-131352380D02*
X138407142Y-130352380D01*
X138492857Y-130495238D01*
X138578571Y-130590476D01*
X138664285Y-130638095D01*
X137807142Y-130447619D02*
X137764285Y-130400000D01*
X137678571Y-130352380D01*
X137464285Y-130352380D01*
X137378571Y-130400000D01*
X137335714Y-130447619D01*
X137292857Y-130542857D01*
X137292857Y-130638095D01*
X137335714Y-130780952D01*
X137850000Y-131352380D01*
X137292857Y-131352380D01*
X137121428Y-131447619D02*
X136435714Y-131447619D01*
X135964285Y-130352380D02*
X135964285Y-131066666D01*
X136007142Y-131209523D01*
X136092857Y-131304761D01*
X136221428Y-131352380D01*
X136307142Y-131352380D01*
X135578571Y-131066666D02*
X135150000Y-131066666D01*
X135664285Y-131352380D02*
X135364285Y-130352380D01*
X135064285Y-131352380D01*
X134250000Y-131257142D02*
X134292857Y-131304761D01*
X134421428Y-131352380D01*
X134507142Y-131352380D01*
X134635714Y-131304761D01*
X134721428Y-131209523D01*
X134764285Y-131114285D01*
X134807142Y-130923809D01*
X134807142Y-130780952D01*
X134764285Y-130590476D01*
X134721428Y-130495238D01*
X134635714Y-130400000D01*
X134507142Y-130352380D01*
X134421428Y-130352380D01*
X134292857Y-130400000D01*
X134250000Y-130447619D01*
X133864285Y-131352380D02*
X133864285Y-130352380D01*
X133350000Y-131352380D02*
X133735714Y-130780952D01*
X133350000Y-130352380D02*
X133864285Y-130923809D01*
G04 #@! TO.C,J10*
D13*
X134819350Y-132428638D02*
X135176493Y-132428638D01*
X135247921Y-132404828D01*
X135295540Y-132357209D01*
X135319350Y-132285780D01*
X135319350Y-132238161D01*
X135319350Y-132928638D02*
X135319350Y-132642923D01*
X135319350Y-132785780D02*
X134819350Y-132785780D01*
X134890779Y-132738161D01*
X134938398Y-132690542D01*
X134962207Y-132642923D01*
X134819350Y-133238161D02*
X134819350Y-133285780D01*
X134843160Y-133333400D01*
X134866969Y-133357209D01*
X134914588Y-133381019D01*
X135009826Y-133404828D01*
X135128874Y-133404828D01*
X135224112Y-133381019D01*
X135271731Y-133357209D01*
X135295540Y-133333400D01*
X135319350Y-133285780D01*
X135319350Y-133238161D01*
X135295540Y-133190542D01*
X135271731Y-133166733D01*
X135224112Y-133142923D01*
X135128874Y-133119114D01*
X135009826Y-133119114D01*
X134914588Y-133142923D01*
X134866969Y-133166733D01*
X134843160Y-133190542D01*
X134819350Y-133238161D01*
D14*
X137542857Y-130352380D02*
X137328571Y-131352380D01*
X137157142Y-130638095D01*
X136985714Y-131352380D01*
X136771428Y-130352380D01*
X135828571Y-131447619D02*
X135914285Y-131400000D01*
X136000000Y-131304761D01*
X136128571Y-131161904D01*
X136214285Y-131114285D01*
X136300000Y-131114285D01*
X136257142Y-131352380D02*
X136342857Y-131304761D01*
X136428571Y-131209523D01*
X136471428Y-131019047D01*
X136471428Y-130685714D01*
X136428571Y-130495238D01*
X136342857Y-130400000D01*
X136257142Y-130352380D01*
X136085714Y-130352380D01*
X136000000Y-130400000D01*
X135914285Y-130495238D01*
X135871428Y-130685714D01*
X135871428Y-131019047D01*
X135914285Y-131209523D01*
X136000000Y-131304761D01*
X136085714Y-131352380D01*
X136257142Y-131352380D01*
X135485714Y-131352380D02*
X135485714Y-130352380D01*
X135142857Y-130352380D01*
X135057142Y-130400000D01*
X135014285Y-130447619D01*
X134971428Y-130542857D01*
X134971428Y-130685714D01*
X135014285Y-130780952D01*
X135057142Y-130828571D01*
X135142857Y-130876190D01*
X135485714Y-130876190D01*
X134585714Y-130971428D02*
X133900000Y-130971428D01*
X133471428Y-131352380D02*
X133471428Y-130352380D01*
X133128571Y-130352380D01*
X133042857Y-130400000D01*
X133000000Y-130447619D01*
X132957142Y-130542857D01*
X132957142Y-130685714D01*
X133000000Y-130780952D01*
X133042857Y-130828571D01*
X133128571Y-130876190D01*
X133471428Y-130876190D01*
X132314285Y-130352380D02*
X132314285Y-131066666D01*
X132357142Y-131209523D01*
X132442857Y-131304761D01*
X132571428Y-131352380D01*
X132657142Y-131352380D01*
X131971428Y-130352380D02*
X131414285Y-130352380D01*
X131714285Y-130733333D01*
X131585714Y-130733333D01*
X131500000Y-130780952D01*
X131457142Y-130828571D01*
X131414285Y-130923809D01*
X131414285Y-131161904D01*
X131457142Y-131257142D01*
X131500000Y-131304761D01*
X131585714Y-131352380D01*
X131842857Y-131352380D01*
X131928571Y-131304761D01*
X131971428Y-131257142D01*
X130857142Y-130352380D02*
X130771428Y-130352380D01*
X130685714Y-130400000D01*
X130642857Y-130447619D01*
X130600000Y-130542857D01*
X130557142Y-130733333D01*
X130557142Y-130971428D01*
X130600000Y-131161904D01*
X130642857Y-131257142D01*
X130685714Y-131304761D01*
X130771428Y-131352380D01*
X130857142Y-131352380D01*
X130942857Y-131304761D01*
X130985714Y-131257142D01*
X131028571Y-131161904D01*
X131071428Y-130971428D01*
X131071428Y-130733333D01*
X131028571Y-130542857D01*
X130985714Y-130447619D01*
X130942857Y-130400000D01*
X130857142Y-130352380D01*
X129700000Y-131352380D02*
X130214285Y-131352380D01*
X129957142Y-131352380D02*
X129957142Y-130352380D01*
X130042857Y-130495238D01*
X130128571Y-130590476D01*
X130214285Y-130638095D01*
X129314285Y-131352380D02*
X129314285Y-130352380D01*
X129014285Y-131066666D01*
X128714285Y-130352380D01*
X128714285Y-131352380D01*
X128285714Y-130971428D02*
X127600000Y-130971428D01*
X126700000Y-131352380D02*
X127214285Y-131352380D01*
X126957142Y-131352380D02*
X126957142Y-130352380D01*
X127042857Y-130495238D01*
X127128571Y-130590476D01*
X127214285Y-130638095D01*
X126357142Y-130447619D02*
X126314285Y-130400000D01*
X126228571Y-130352380D01*
X126014285Y-130352380D01*
X125928571Y-130400000D01*
X125885714Y-130447619D01*
X125842857Y-130542857D01*
X125842857Y-130638095D01*
X125885714Y-130780952D01*
X126400000Y-131352380D01*
X125842857Y-131352380D01*
X125671428Y-131447619D02*
X124985714Y-131447619D01*
X124514285Y-130352380D02*
X124514285Y-131066666D01*
X124557142Y-131209523D01*
X124642857Y-131304761D01*
X124771428Y-131352380D01*
X124857142Y-131352380D01*
X124128571Y-131066666D02*
X123700000Y-131066666D01*
X124214285Y-131352380D02*
X123914285Y-130352380D01*
X123614285Y-131352380D01*
X122800000Y-131257142D02*
X122842857Y-131304761D01*
X122971428Y-131352380D01*
X123057142Y-131352380D01*
X123185714Y-131304761D01*
X123271428Y-131209523D01*
X123314285Y-131114285D01*
X123357142Y-130923809D01*
X123357142Y-130780952D01*
X123314285Y-130590476D01*
X123271428Y-130495238D01*
X123185714Y-130400000D01*
X123057142Y-130352380D01*
X122971428Y-130352380D01*
X122842857Y-130400000D01*
X122800000Y-130447619D01*
X122414285Y-131352380D02*
X122414285Y-130352380D01*
X121900000Y-131352380D02*
X122285714Y-130780952D01*
X121900000Y-130352380D02*
X122414285Y-130923809D01*
G04 #@! TO.C,J11*
D13*
X123369350Y-132428638D02*
X123726493Y-132428638D01*
X123797921Y-132404828D01*
X123845540Y-132357209D01*
X123869350Y-132285780D01*
X123869350Y-132238161D01*
X123869350Y-132928638D02*
X123869350Y-132642923D01*
X123869350Y-132785780D02*
X123369350Y-132785780D01*
X123440779Y-132738161D01*
X123488398Y-132690542D01*
X123512207Y-132642923D01*
X123869350Y-133404828D02*
X123869350Y-133119114D01*
X123869350Y-133261971D02*
X123369350Y-133261971D01*
X123440779Y-133214352D01*
X123488398Y-133166733D01*
X123512207Y-133119114D01*
D14*
X126092857Y-130352380D02*
X125878571Y-131352380D01*
X125707142Y-130638095D01*
X125535714Y-131352380D01*
X125321428Y-130352380D01*
X124378571Y-131447619D02*
X124464285Y-131400000D01*
X124550000Y-131304761D01*
X124678571Y-131161904D01*
X124764285Y-131114285D01*
X124850000Y-131114285D01*
X124807142Y-131352380D02*
X124892857Y-131304761D01*
X124978571Y-131209523D01*
X125021428Y-131019047D01*
X125021428Y-130685714D01*
X124978571Y-130495238D01*
X124892857Y-130400000D01*
X124807142Y-130352380D01*
X124635714Y-130352380D01*
X124550000Y-130400000D01*
X124464285Y-130495238D01*
X124421428Y-130685714D01*
X124421428Y-131019047D01*
X124464285Y-131209523D01*
X124550000Y-131304761D01*
X124635714Y-131352380D01*
X124807142Y-131352380D01*
X124035714Y-131352380D02*
X124035714Y-130352380D01*
X123692857Y-130352380D01*
X123607142Y-130400000D01*
X123564285Y-130447619D01*
X123521428Y-130542857D01*
X123521428Y-130685714D01*
X123564285Y-130780952D01*
X123607142Y-130828571D01*
X123692857Y-130876190D01*
X124035714Y-130876190D01*
X123135714Y-130971428D02*
X122450000Y-130971428D01*
X122021428Y-131352380D02*
X122021428Y-130352380D01*
X121678571Y-130352380D01*
X121592857Y-130400000D01*
X121550000Y-130447619D01*
X121507142Y-130542857D01*
X121507142Y-130685714D01*
X121550000Y-130780952D01*
X121592857Y-130828571D01*
X121678571Y-130876190D01*
X122021428Y-130876190D01*
X120864285Y-130352380D02*
X120864285Y-131066666D01*
X120907142Y-131209523D01*
X120992857Y-131304761D01*
X121121428Y-131352380D01*
X121207142Y-131352380D01*
X120521428Y-130352380D02*
X119964285Y-130352380D01*
X120264285Y-130733333D01*
X120135714Y-130733333D01*
X120050000Y-130780952D01*
X120007142Y-130828571D01*
X119964285Y-130923809D01*
X119964285Y-131161904D01*
X120007142Y-131257142D01*
X120050000Y-131304761D01*
X120135714Y-131352380D01*
X120392857Y-131352380D01*
X120478571Y-131304761D01*
X120521428Y-131257142D01*
X119407142Y-130352380D02*
X119321428Y-130352380D01*
X119235714Y-130400000D01*
X119192857Y-130447619D01*
X119150000Y-130542857D01*
X119107142Y-130733333D01*
X119107142Y-130971428D01*
X119150000Y-131161904D01*
X119192857Y-131257142D01*
X119235714Y-131304761D01*
X119321428Y-131352380D01*
X119407142Y-131352380D01*
X119492857Y-131304761D01*
X119535714Y-131257142D01*
X119578571Y-131161904D01*
X119621428Y-130971428D01*
X119621428Y-130733333D01*
X119578571Y-130542857D01*
X119535714Y-130447619D01*
X119492857Y-130400000D01*
X119407142Y-130352380D01*
X118250000Y-131352380D02*
X118764285Y-131352380D01*
X118507142Y-131352380D02*
X118507142Y-130352380D01*
X118592857Y-130495238D01*
X118678571Y-130590476D01*
X118764285Y-130638095D01*
X117864285Y-131352380D02*
X117864285Y-130352380D01*
X117564285Y-131066666D01*
X117264285Y-130352380D01*
X117264285Y-131352380D01*
X116835714Y-130971428D02*
X116150000Y-130971428D01*
X115250000Y-131352380D02*
X115764285Y-131352380D01*
X115507142Y-131352380D02*
X115507142Y-130352380D01*
X115592857Y-130495238D01*
X115678571Y-130590476D01*
X115764285Y-130638095D01*
X114907142Y-130447619D02*
X114864285Y-130400000D01*
X114778571Y-130352380D01*
X114564285Y-130352380D01*
X114478571Y-130400000D01*
X114435714Y-130447619D01*
X114392857Y-130542857D01*
X114392857Y-130638095D01*
X114435714Y-130780952D01*
X114950000Y-131352380D01*
X114392857Y-131352380D01*
X114221428Y-131447619D02*
X113535714Y-131447619D01*
X113064285Y-130352380D02*
X113064285Y-131066666D01*
X113107142Y-131209523D01*
X113192857Y-131304761D01*
X113321428Y-131352380D01*
X113407142Y-131352380D01*
X112678571Y-131066666D02*
X112250000Y-131066666D01*
X112764285Y-131352380D02*
X112464285Y-130352380D01*
X112164285Y-131352380D01*
X111350000Y-131257142D02*
X111392857Y-131304761D01*
X111521428Y-131352380D01*
X111607142Y-131352380D01*
X111735714Y-131304761D01*
X111821428Y-131209523D01*
X111864285Y-131114285D01*
X111907142Y-130923809D01*
X111907142Y-130780952D01*
X111864285Y-130590476D01*
X111821428Y-130495238D01*
X111735714Y-130400000D01*
X111607142Y-130352380D01*
X111521428Y-130352380D01*
X111392857Y-130400000D01*
X111350000Y-130447619D01*
X110964285Y-131352380D02*
X110964285Y-130352380D01*
X110450000Y-131352380D02*
X110835714Y-130780952D01*
X110450000Y-130352380D02*
X110964285Y-130923809D01*
G04 #@! TO.C,J12*
D13*
X111919350Y-132428638D02*
X112276493Y-132428638D01*
X112347921Y-132404828D01*
X112395540Y-132357209D01*
X112419350Y-132285780D01*
X112419350Y-132238161D01*
X112419350Y-132928638D02*
X112419350Y-132642923D01*
X112419350Y-132785780D02*
X111919350Y-132785780D01*
X111990779Y-132738161D01*
X112038398Y-132690542D01*
X112062207Y-132642923D01*
X111966969Y-133119114D02*
X111943160Y-133142923D01*
X111919350Y-133190542D01*
X111919350Y-133309590D01*
X111943160Y-133357209D01*
X111966969Y-133381019D01*
X112014588Y-133404828D01*
X112062207Y-133404828D01*
X112133636Y-133381019D01*
X112419350Y-133095304D01*
X112419350Y-133404828D01*
D14*
X114642857Y-130352380D02*
X114428571Y-131352380D01*
X114257142Y-130638095D01*
X114085714Y-131352380D01*
X113871428Y-130352380D01*
X112928571Y-131447619D02*
X113014285Y-131400000D01*
X113100000Y-131304761D01*
X113228571Y-131161904D01*
X113314285Y-131114285D01*
X113400000Y-131114285D01*
X113357142Y-131352380D02*
X113442857Y-131304761D01*
X113528571Y-131209523D01*
X113571428Y-131019047D01*
X113571428Y-130685714D01*
X113528571Y-130495238D01*
X113442857Y-130400000D01*
X113357142Y-130352380D01*
X113185714Y-130352380D01*
X113100000Y-130400000D01*
X113014285Y-130495238D01*
X112971428Y-130685714D01*
X112971428Y-131019047D01*
X113014285Y-131209523D01*
X113100000Y-131304761D01*
X113185714Y-131352380D01*
X113357142Y-131352380D01*
X112585714Y-131352380D02*
X112585714Y-130352380D01*
X112242857Y-130352380D01*
X112157142Y-130400000D01*
X112114285Y-130447619D01*
X112071428Y-130542857D01*
X112071428Y-130685714D01*
X112114285Y-130780952D01*
X112157142Y-130828571D01*
X112242857Y-130876190D01*
X112585714Y-130876190D01*
X111685714Y-130971428D02*
X111000000Y-130971428D01*
X110571428Y-131352380D02*
X110571428Y-130352380D01*
X110228571Y-130352380D01*
X110142857Y-130400000D01*
X110100000Y-130447619D01*
X110057142Y-130542857D01*
X110057142Y-130685714D01*
X110100000Y-130780952D01*
X110142857Y-130828571D01*
X110228571Y-130876190D01*
X110571428Y-130876190D01*
X109414285Y-130352380D02*
X109414285Y-131066666D01*
X109457142Y-131209523D01*
X109542857Y-131304761D01*
X109671428Y-131352380D01*
X109757142Y-131352380D01*
X109071428Y-130352380D02*
X108514285Y-130352380D01*
X108814285Y-130733333D01*
X108685714Y-130733333D01*
X108600000Y-130780952D01*
X108557142Y-130828571D01*
X108514285Y-130923809D01*
X108514285Y-131161904D01*
X108557142Y-131257142D01*
X108600000Y-131304761D01*
X108685714Y-131352380D01*
X108942857Y-131352380D01*
X109028571Y-131304761D01*
X109071428Y-131257142D01*
X107957142Y-130352380D02*
X107871428Y-130352380D01*
X107785714Y-130400000D01*
X107742857Y-130447619D01*
X107700000Y-130542857D01*
X107657142Y-130733333D01*
X107657142Y-130971428D01*
X107700000Y-131161904D01*
X107742857Y-131257142D01*
X107785714Y-131304761D01*
X107871428Y-131352380D01*
X107957142Y-131352380D01*
X108042857Y-131304761D01*
X108085714Y-131257142D01*
X108128571Y-131161904D01*
X108171428Y-130971428D01*
X108171428Y-130733333D01*
X108128571Y-130542857D01*
X108085714Y-130447619D01*
X108042857Y-130400000D01*
X107957142Y-130352380D01*
X106800000Y-131352380D02*
X107314285Y-131352380D01*
X107057142Y-131352380D02*
X107057142Y-130352380D01*
X107142857Y-130495238D01*
X107228571Y-130590476D01*
X107314285Y-130638095D01*
X106414285Y-131352380D02*
X106414285Y-130352380D01*
X106114285Y-131066666D01*
X105814285Y-130352380D01*
X105814285Y-131352380D01*
X105385714Y-130971428D02*
X104700000Y-130971428D01*
X103800000Y-131352380D02*
X104314285Y-131352380D01*
X104057142Y-131352380D02*
X104057142Y-130352380D01*
X104142857Y-130495238D01*
X104228571Y-130590476D01*
X104314285Y-130638095D01*
X103457142Y-130447619D02*
X103414285Y-130400000D01*
X103328571Y-130352380D01*
X103114285Y-130352380D01*
X103028571Y-130400000D01*
X102985714Y-130447619D01*
X102942857Y-130542857D01*
X102942857Y-130638095D01*
X102985714Y-130780952D01*
X103500000Y-131352380D01*
X102942857Y-131352380D01*
X102771428Y-131447619D02*
X102085714Y-131447619D01*
X101614285Y-130352380D02*
X101614285Y-131066666D01*
X101657142Y-131209523D01*
X101742857Y-131304761D01*
X101871428Y-131352380D01*
X101957142Y-131352380D01*
X101228571Y-131066666D02*
X100800000Y-131066666D01*
X101314285Y-131352380D02*
X101014285Y-130352380D01*
X100714285Y-131352380D01*
X99900000Y-131257142D02*
X99942857Y-131304761D01*
X100071428Y-131352380D01*
X100157142Y-131352380D01*
X100285714Y-131304761D01*
X100371428Y-131209523D01*
X100414285Y-131114285D01*
X100457142Y-130923809D01*
X100457142Y-130780952D01*
X100414285Y-130590476D01*
X100371428Y-130495238D01*
X100285714Y-130400000D01*
X100157142Y-130352380D01*
X100071428Y-130352380D01*
X99942857Y-130400000D01*
X99900000Y-130447619D01*
X99514285Y-131352380D02*
X99514285Y-130352380D01*
X99000000Y-131352380D02*
X99385714Y-130780952D01*
X99000000Y-130352380D02*
X99514285Y-130923809D01*
G04 #@! TO.C,J13*
D13*
X169169350Y-117828638D02*
X169526493Y-117828638D01*
X169597921Y-117804828D01*
X169645540Y-117757209D01*
X169669350Y-117685780D01*
X169669350Y-117638161D01*
X169669350Y-118328638D02*
X169669350Y-118042923D01*
X169669350Y-118185780D02*
X169169350Y-118185780D01*
X169240779Y-118138161D01*
X169288398Y-118090542D01*
X169312207Y-118042923D01*
X169169350Y-118495304D02*
X169169350Y-118804828D01*
X169359826Y-118638161D01*
X169359826Y-118709590D01*
X169383636Y-118757209D01*
X169407445Y-118781019D01*
X169455064Y-118804828D01*
X169574112Y-118804828D01*
X169621731Y-118781019D01*
X169645540Y-118757209D01*
X169669350Y-118709590D01*
X169669350Y-118566733D01*
X169645540Y-118519114D01*
X169621731Y-118495304D01*
D14*
X168657142Y-116371428D02*
X167971428Y-116371428D01*
X167414285Y-116180952D02*
X167500000Y-116133333D01*
X167542857Y-116085714D01*
X167585714Y-115990476D01*
X167585714Y-115942857D01*
X167542857Y-115847619D01*
X167500000Y-115800000D01*
X167414285Y-115752380D01*
X167242857Y-115752380D01*
X167157142Y-115800000D01*
X167114285Y-115847619D01*
X167071428Y-115942857D01*
X167071428Y-115990476D01*
X167114285Y-116085714D01*
X167157142Y-116133333D01*
X167242857Y-116180952D01*
X167414285Y-116180952D01*
X167500000Y-116228571D01*
X167542857Y-116276190D01*
X167585714Y-116371428D01*
X167585714Y-116561904D01*
X167542857Y-116657142D01*
X167500000Y-116704761D01*
X167414285Y-116752380D01*
X167242857Y-116752380D01*
X167157142Y-116704761D01*
X167114285Y-116657142D01*
X167071428Y-116561904D01*
X167071428Y-116371428D01*
X167114285Y-116276190D01*
X167157142Y-116228571D01*
X167242857Y-116180952D01*
X166685714Y-116657142D02*
X166642857Y-116704761D01*
X166685714Y-116752380D01*
X166728571Y-116704761D01*
X166685714Y-116657142D01*
X166685714Y-116752380D01*
X165785714Y-116752380D02*
X166300000Y-116752380D01*
X166042857Y-116752380D02*
X166042857Y-115752380D01*
X166128571Y-115895238D01*
X166214285Y-115990476D01*
X166300000Y-116038095D01*
X165528571Y-115752380D02*
X165228571Y-116752380D01*
X164928571Y-115752380D01*
X164071428Y-116085714D02*
X163728571Y-116085714D01*
X163942857Y-115752380D02*
X163942857Y-116609523D01*
X163900000Y-116704761D01*
X163814285Y-116752380D01*
X163728571Y-116752380D01*
X163300000Y-116752380D02*
X163385714Y-116704761D01*
X163428571Y-116657142D01*
X163471428Y-116561904D01*
X163471428Y-116276190D01*
X163428571Y-116180952D01*
X163385714Y-116133333D01*
X163300000Y-116085714D01*
X163171428Y-116085714D01*
X163085714Y-116133333D01*
X163042857Y-116180952D01*
X163000000Y-116276190D01*
X163000000Y-116561904D01*
X163042857Y-116657142D01*
X163085714Y-116704761D01*
X163171428Y-116752380D01*
X163300000Y-116752380D01*
X161800000Y-116180952D02*
X161885714Y-116133333D01*
X161928571Y-116085714D01*
X161971428Y-115990476D01*
X161971428Y-115942857D01*
X161928571Y-115847619D01*
X161885714Y-115800000D01*
X161800000Y-115752380D01*
X161628571Y-115752380D01*
X161542857Y-115800000D01*
X161500000Y-115847619D01*
X161457142Y-115942857D01*
X161457142Y-115990476D01*
X161500000Y-116085714D01*
X161542857Y-116133333D01*
X161628571Y-116180952D01*
X161800000Y-116180952D01*
X161885714Y-116228571D01*
X161928571Y-116276190D01*
X161971428Y-116371428D01*
X161971428Y-116561904D01*
X161928571Y-116657142D01*
X161885714Y-116704761D01*
X161800000Y-116752380D01*
X161628571Y-116752380D01*
X161542857Y-116704761D01*
X161500000Y-116657142D01*
X161457142Y-116561904D01*
X161457142Y-116371428D01*
X161500000Y-116276190D01*
X161542857Y-116228571D01*
X161628571Y-116180952D01*
X161071428Y-116657142D02*
X161028571Y-116704761D01*
X161071428Y-116752380D01*
X161114285Y-116704761D01*
X161071428Y-116657142D01*
X161071428Y-116752380D01*
X160171428Y-116752380D02*
X160685714Y-116752380D01*
X160428571Y-116752380D02*
X160428571Y-115752380D01*
X160514285Y-115895238D01*
X160600000Y-115990476D01*
X160685714Y-116038095D01*
X159914285Y-115752380D02*
X159614285Y-116752380D01*
X159314285Y-115752380D01*
G04 #@! TO.C,J14*
D13*
X157719350Y-117828638D02*
X158076493Y-117828638D01*
X158147921Y-117804828D01*
X158195540Y-117757209D01*
X158219350Y-117685780D01*
X158219350Y-117638161D01*
X158219350Y-118328638D02*
X158219350Y-118042923D01*
X158219350Y-118185780D02*
X157719350Y-118185780D01*
X157790779Y-118138161D01*
X157838398Y-118090542D01*
X157862207Y-118042923D01*
X157886017Y-118757209D02*
X158219350Y-118757209D01*
X157695540Y-118638161D02*
X158052683Y-118519114D01*
X158052683Y-118828638D01*
D14*
X157207142Y-116371428D02*
X156521428Y-116371428D01*
X155964285Y-116180952D02*
X156050000Y-116133333D01*
X156092857Y-116085714D01*
X156135714Y-115990476D01*
X156135714Y-115942857D01*
X156092857Y-115847619D01*
X156050000Y-115800000D01*
X155964285Y-115752380D01*
X155792857Y-115752380D01*
X155707142Y-115800000D01*
X155664285Y-115847619D01*
X155621428Y-115942857D01*
X155621428Y-115990476D01*
X155664285Y-116085714D01*
X155707142Y-116133333D01*
X155792857Y-116180952D01*
X155964285Y-116180952D01*
X156050000Y-116228571D01*
X156092857Y-116276190D01*
X156135714Y-116371428D01*
X156135714Y-116561904D01*
X156092857Y-116657142D01*
X156050000Y-116704761D01*
X155964285Y-116752380D01*
X155792857Y-116752380D01*
X155707142Y-116704761D01*
X155664285Y-116657142D01*
X155621428Y-116561904D01*
X155621428Y-116371428D01*
X155664285Y-116276190D01*
X155707142Y-116228571D01*
X155792857Y-116180952D01*
X155235714Y-116657142D02*
X155192857Y-116704761D01*
X155235714Y-116752380D01*
X155278571Y-116704761D01*
X155235714Y-116657142D01*
X155235714Y-116752380D01*
X154335714Y-116752380D02*
X154850000Y-116752380D01*
X154592857Y-116752380D02*
X154592857Y-115752380D01*
X154678571Y-115895238D01*
X154764285Y-115990476D01*
X154850000Y-116038095D01*
X154078571Y-115752380D02*
X153778571Y-116752380D01*
X153478571Y-115752380D01*
X152621428Y-116085714D02*
X152278571Y-116085714D01*
X152492857Y-115752380D02*
X152492857Y-116609523D01*
X152450000Y-116704761D01*
X152364285Y-116752380D01*
X152278571Y-116752380D01*
X151850000Y-116752380D02*
X151935714Y-116704761D01*
X151978571Y-116657142D01*
X152021428Y-116561904D01*
X152021428Y-116276190D01*
X151978571Y-116180952D01*
X151935714Y-116133333D01*
X151850000Y-116085714D01*
X151721428Y-116085714D01*
X151635714Y-116133333D01*
X151592857Y-116180952D01*
X151550000Y-116276190D01*
X151550000Y-116561904D01*
X151592857Y-116657142D01*
X151635714Y-116704761D01*
X151721428Y-116752380D01*
X151850000Y-116752380D01*
X150350000Y-116180952D02*
X150435714Y-116133333D01*
X150478571Y-116085714D01*
X150521428Y-115990476D01*
X150521428Y-115942857D01*
X150478571Y-115847619D01*
X150435714Y-115800000D01*
X150350000Y-115752380D01*
X150178571Y-115752380D01*
X150092857Y-115800000D01*
X150050000Y-115847619D01*
X150007142Y-115942857D01*
X150007142Y-115990476D01*
X150050000Y-116085714D01*
X150092857Y-116133333D01*
X150178571Y-116180952D01*
X150350000Y-116180952D01*
X150435714Y-116228571D01*
X150478571Y-116276190D01*
X150521428Y-116371428D01*
X150521428Y-116561904D01*
X150478571Y-116657142D01*
X150435714Y-116704761D01*
X150350000Y-116752380D01*
X150178571Y-116752380D01*
X150092857Y-116704761D01*
X150050000Y-116657142D01*
X150007142Y-116561904D01*
X150007142Y-116371428D01*
X150050000Y-116276190D01*
X150092857Y-116228571D01*
X150178571Y-116180952D01*
X149621428Y-116657142D02*
X149578571Y-116704761D01*
X149621428Y-116752380D01*
X149664285Y-116704761D01*
X149621428Y-116657142D01*
X149621428Y-116752380D01*
X148721428Y-116752380D02*
X149235714Y-116752380D01*
X148978571Y-116752380D02*
X148978571Y-115752380D01*
X149064285Y-115895238D01*
X149150000Y-115990476D01*
X149235714Y-116038095D01*
X148464285Y-115752380D02*
X148164285Y-116752380D01*
X147864285Y-115752380D01*
G04 #@! TO.C,J15*
D13*
X146269350Y-117828638D02*
X146626493Y-117828638D01*
X146697921Y-117804828D01*
X146745540Y-117757209D01*
X146769350Y-117685780D01*
X146769350Y-117638161D01*
X146769350Y-118328638D02*
X146769350Y-118042923D01*
X146769350Y-118185780D02*
X146269350Y-118185780D01*
X146340779Y-118138161D01*
X146388398Y-118090542D01*
X146412207Y-118042923D01*
X146269350Y-118781019D02*
X146269350Y-118542923D01*
X146507445Y-118519114D01*
X146483636Y-118542923D01*
X146459826Y-118590542D01*
X146459826Y-118709590D01*
X146483636Y-118757209D01*
X146507445Y-118781019D01*
X146555064Y-118804828D01*
X146674112Y-118804828D01*
X146721731Y-118781019D01*
X146745540Y-118757209D01*
X146769350Y-118709590D01*
X146769350Y-118590542D01*
X146745540Y-118542923D01*
X146721731Y-118519114D01*
D14*
X145757142Y-116371428D02*
X145071428Y-116371428D01*
X144514285Y-116180952D02*
X144600000Y-116133333D01*
X144642857Y-116085714D01*
X144685714Y-115990476D01*
X144685714Y-115942857D01*
X144642857Y-115847619D01*
X144600000Y-115800000D01*
X144514285Y-115752380D01*
X144342857Y-115752380D01*
X144257142Y-115800000D01*
X144214285Y-115847619D01*
X144171428Y-115942857D01*
X144171428Y-115990476D01*
X144214285Y-116085714D01*
X144257142Y-116133333D01*
X144342857Y-116180952D01*
X144514285Y-116180952D01*
X144600000Y-116228571D01*
X144642857Y-116276190D01*
X144685714Y-116371428D01*
X144685714Y-116561904D01*
X144642857Y-116657142D01*
X144600000Y-116704761D01*
X144514285Y-116752380D01*
X144342857Y-116752380D01*
X144257142Y-116704761D01*
X144214285Y-116657142D01*
X144171428Y-116561904D01*
X144171428Y-116371428D01*
X144214285Y-116276190D01*
X144257142Y-116228571D01*
X144342857Y-116180952D01*
X143785714Y-116657142D02*
X143742857Y-116704761D01*
X143785714Y-116752380D01*
X143828571Y-116704761D01*
X143785714Y-116657142D01*
X143785714Y-116752380D01*
X142885714Y-116752380D02*
X143400000Y-116752380D01*
X143142857Y-116752380D02*
X143142857Y-115752380D01*
X143228571Y-115895238D01*
X143314285Y-115990476D01*
X143400000Y-116038095D01*
X142628571Y-115752380D02*
X142328571Y-116752380D01*
X142028571Y-115752380D01*
X141171428Y-116085714D02*
X140828571Y-116085714D01*
X141042857Y-115752380D02*
X141042857Y-116609523D01*
X141000000Y-116704761D01*
X140914285Y-116752380D01*
X140828571Y-116752380D01*
X140400000Y-116752380D02*
X140485714Y-116704761D01*
X140528571Y-116657142D01*
X140571428Y-116561904D01*
X140571428Y-116276190D01*
X140528571Y-116180952D01*
X140485714Y-116133333D01*
X140400000Y-116085714D01*
X140271428Y-116085714D01*
X140185714Y-116133333D01*
X140142857Y-116180952D01*
X140100000Y-116276190D01*
X140100000Y-116561904D01*
X140142857Y-116657142D01*
X140185714Y-116704761D01*
X140271428Y-116752380D01*
X140400000Y-116752380D01*
X138900000Y-116180952D02*
X138985714Y-116133333D01*
X139028571Y-116085714D01*
X139071428Y-115990476D01*
X139071428Y-115942857D01*
X139028571Y-115847619D01*
X138985714Y-115800000D01*
X138900000Y-115752380D01*
X138728571Y-115752380D01*
X138642857Y-115800000D01*
X138600000Y-115847619D01*
X138557142Y-115942857D01*
X138557142Y-115990476D01*
X138600000Y-116085714D01*
X138642857Y-116133333D01*
X138728571Y-116180952D01*
X138900000Y-116180952D01*
X138985714Y-116228571D01*
X139028571Y-116276190D01*
X139071428Y-116371428D01*
X139071428Y-116561904D01*
X139028571Y-116657142D01*
X138985714Y-116704761D01*
X138900000Y-116752380D01*
X138728571Y-116752380D01*
X138642857Y-116704761D01*
X138600000Y-116657142D01*
X138557142Y-116561904D01*
X138557142Y-116371428D01*
X138600000Y-116276190D01*
X138642857Y-116228571D01*
X138728571Y-116180952D01*
X138171428Y-116657142D02*
X138128571Y-116704761D01*
X138171428Y-116752380D01*
X138214285Y-116704761D01*
X138171428Y-116657142D01*
X138171428Y-116752380D01*
X137271428Y-116752380D02*
X137785714Y-116752380D01*
X137528571Y-116752380D02*
X137528571Y-115752380D01*
X137614285Y-115895238D01*
X137700000Y-115990476D01*
X137785714Y-116038095D01*
X137014285Y-115752380D02*
X136714285Y-116752380D01*
X136414285Y-115752380D01*
G04 #@! TO.C,J16*
D13*
X134819350Y-117828638D02*
X135176493Y-117828638D01*
X135247921Y-117804828D01*
X135295540Y-117757209D01*
X135319350Y-117685780D01*
X135319350Y-117638161D01*
X135319350Y-118328638D02*
X135319350Y-118042923D01*
X135319350Y-118185780D02*
X134819350Y-118185780D01*
X134890779Y-118138161D01*
X134938398Y-118090542D01*
X134962207Y-118042923D01*
X134819350Y-118757209D02*
X134819350Y-118661971D01*
X134843160Y-118614352D01*
X134866969Y-118590542D01*
X134938398Y-118542923D01*
X135033636Y-118519114D01*
X135224112Y-118519114D01*
X135271731Y-118542923D01*
X135295540Y-118566733D01*
X135319350Y-118614352D01*
X135319350Y-118709590D01*
X135295540Y-118757209D01*
X135271731Y-118781019D01*
X135224112Y-118804828D01*
X135105064Y-118804828D01*
X135057445Y-118781019D01*
X135033636Y-118757209D01*
X135009826Y-118709590D01*
X135009826Y-118614352D01*
X135033636Y-118566733D01*
X135057445Y-118542923D01*
X135105064Y-118519114D01*
D14*
X134307142Y-116371428D02*
X133621428Y-116371428D01*
X133064285Y-116180952D02*
X133150000Y-116133333D01*
X133192857Y-116085714D01*
X133235714Y-115990476D01*
X133235714Y-115942857D01*
X133192857Y-115847619D01*
X133150000Y-115800000D01*
X133064285Y-115752380D01*
X132892857Y-115752380D01*
X132807142Y-115800000D01*
X132764285Y-115847619D01*
X132721428Y-115942857D01*
X132721428Y-115990476D01*
X132764285Y-116085714D01*
X132807142Y-116133333D01*
X132892857Y-116180952D01*
X133064285Y-116180952D01*
X133150000Y-116228571D01*
X133192857Y-116276190D01*
X133235714Y-116371428D01*
X133235714Y-116561904D01*
X133192857Y-116657142D01*
X133150000Y-116704761D01*
X133064285Y-116752380D01*
X132892857Y-116752380D01*
X132807142Y-116704761D01*
X132764285Y-116657142D01*
X132721428Y-116561904D01*
X132721428Y-116371428D01*
X132764285Y-116276190D01*
X132807142Y-116228571D01*
X132892857Y-116180952D01*
X132335714Y-116657142D02*
X132292857Y-116704761D01*
X132335714Y-116752380D01*
X132378571Y-116704761D01*
X132335714Y-116657142D01*
X132335714Y-116752380D01*
X131435714Y-116752380D02*
X131950000Y-116752380D01*
X131692857Y-116752380D02*
X131692857Y-115752380D01*
X131778571Y-115895238D01*
X131864285Y-115990476D01*
X131950000Y-116038095D01*
X131178571Y-115752380D02*
X130878571Y-116752380D01*
X130578571Y-115752380D01*
X129721428Y-116085714D02*
X129378571Y-116085714D01*
X129592857Y-115752380D02*
X129592857Y-116609523D01*
X129550000Y-116704761D01*
X129464285Y-116752380D01*
X129378571Y-116752380D01*
X128950000Y-116752380D02*
X129035714Y-116704761D01*
X129078571Y-116657142D01*
X129121428Y-116561904D01*
X129121428Y-116276190D01*
X129078571Y-116180952D01*
X129035714Y-116133333D01*
X128950000Y-116085714D01*
X128821428Y-116085714D01*
X128735714Y-116133333D01*
X128692857Y-116180952D01*
X128650000Y-116276190D01*
X128650000Y-116561904D01*
X128692857Y-116657142D01*
X128735714Y-116704761D01*
X128821428Y-116752380D01*
X128950000Y-116752380D01*
X127450000Y-116180952D02*
X127535714Y-116133333D01*
X127578571Y-116085714D01*
X127621428Y-115990476D01*
X127621428Y-115942857D01*
X127578571Y-115847619D01*
X127535714Y-115800000D01*
X127450000Y-115752380D01*
X127278571Y-115752380D01*
X127192857Y-115800000D01*
X127150000Y-115847619D01*
X127107142Y-115942857D01*
X127107142Y-115990476D01*
X127150000Y-116085714D01*
X127192857Y-116133333D01*
X127278571Y-116180952D01*
X127450000Y-116180952D01*
X127535714Y-116228571D01*
X127578571Y-116276190D01*
X127621428Y-116371428D01*
X127621428Y-116561904D01*
X127578571Y-116657142D01*
X127535714Y-116704761D01*
X127450000Y-116752380D01*
X127278571Y-116752380D01*
X127192857Y-116704761D01*
X127150000Y-116657142D01*
X127107142Y-116561904D01*
X127107142Y-116371428D01*
X127150000Y-116276190D01*
X127192857Y-116228571D01*
X127278571Y-116180952D01*
X126721428Y-116657142D02*
X126678571Y-116704761D01*
X126721428Y-116752380D01*
X126764285Y-116704761D01*
X126721428Y-116657142D01*
X126721428Y-116752380D01*
X125821428Y-116752380D02*
X126335714Y-116752380D01*
X126078571Y-116752380D02*
X126078571Y-115752380D01*
X126164285Y-115895238D01*
X126250000Y-115990476D01*
X126335714Y-116038095D01*
X125564285Y-115752380D02*
X125264285Y-116752380D01*
X124964285Y-115752380D01*
G04 #@! TO.C,J17*
D13*
X123369350Y-117828638D02*
X123726493Y-117828638D01*
X123797921Y-117804828D01*
X123845540Y-117757209D01*
X123869350Y-117685780D01*
X123869350Y-117638161D01*
X123869350Y-118328638D02*
X123869350Y-118042923D01*
X123869350Y-118185780D02*
X123369350Y-118185780D01*
X123440779Y-118138161D01*
X123488398Y-118090542D01*
X123512207Y-118042923D01*
X123369350Y-118495304D02*
X123369350Y-118828638D01*
X123869350Y-118614352D01*
D14*
X122857142Y-116371428D02*
X122171428Y-116371428D01*
X121614285Y-116180952D02*
X121700000Y-116133333D01*
X121742857Y-116085714D01*
X121785714Y-115990476D01*
X121785714Y-115942857D01*
X121742857Y-115847619D01*
X121700000Y-115800000D01*
X121614285Y-115752380D01*
X121442857Y-115752380D01*
X121357142Y-115800000D01*
X121314285Y-115847619D01*
X121271428Y-115942857D01*
X121271428Y-115990476D01*
X121314285Y-116085714D01*
X121357142Y-116133333D01*
X121442857Y-116180952D01*
X121614285Y-116180952D01*
X121700000Y-116228571D01*
X121742857Y-116276190D01*
X121785714Y-116371428D01*
X121785714Y-116561904D01*
X121742857Y-116657142D01*
X121700000Y-116704761D01*
X121614285Y-116752380D01*
X121442857Y-116752380D01*
X121357142Y-116704761D01*
X121314285Y-116657142D01*
X121271428Y-116561904D01*
X121271428Y-116371428D01*
X121314285Y-116276190D01*
X121357142Y-116228571D01*
X121442857Y-116180952D01*
X120885714Y-116657142D02*
X120842857Y-116704761D01*
X120885714Y-116752380D01*
X120928571Y-116704761D01*
X120885714Y-116657142D01*
X120885714Y-116752380D01*
X119985714Y-116752380D02*
X120500000Y-116752380D01*
X120242857Y-116752380D02*
X120242857Y-115752380D01*
X120328571Y-115895238D01*
X120414285Y-115990476D01*
X120500000Y-116038095D01*
X119728571Y-115752380D02*
X119428571Y-116752380D01*
X119128571Y-115752380D01*
X118271428Y-116085714D02*
X117928571Y-116085714D01*
X118142857Y-115752380D02*
X118142857Y-116609523D01*
X118100000Y-116704761D01*
X118014285Y-116752380D01*
X117928571Y-116752380D01*
X117500000Y-116752380D02*
X117585714Y-116704761D01*
X117628571Y-116657142D01*
X117671428Y-116561904D01*
X117671428Y-116276190D01*
X117628571Y-116180952D01*
X117585714Y-116133333D01*
X117500000Y-116085714D01*
X117371428Y-116085714D01*
X117285714Y-116133333D01*
X117242857Y-116180952D01*
X117200000Y-116276190D01*
X117200000Y-116561904D01*
X117242857Y-116657142D01*
X117285714Y-116704761D01*
X117371428Y-116752380D01*
X117500000Y-116752380D01*
X116000000Y-116180952D02*
X116085714Y-116133333D01*
X116128571Y-116085714D01*
X116171428Y-115990476D01*
X116171428Y-115942857D01*
X116128571Y-115847619D01*
X116085714Y-115800000D01*
X116000000Y-115752380D01*
X115828571Y-115752380D01*
X115742857Y-115800000D01*
X115700000Y-115847619D01*
X115657142Y-115942857D01*
X115657142Y-115990476D01*
X115700000Y-116085714D01*
X115742857Y-116133333D01*
X115828571Y-116180952D01*
X116000000Y-116180952D01*
X116085714Y-116228571D01*
X116128571Y-116276190D01*
X116171428Y-116371428D01*
X116171428Y-116561904D01*
X116128571Y-116657142D01*
X116085714Y-116704761D01*
X116000000Y-116752380D01*
X115828571Y-116752380D01*
X115742857Y-116704761D01*
X115700000Y-116657142D01*
X115657142Y-116561904D01*
X115657142Y-116371428D01*
X115700000Y-116276190D01*
X115742857Y-116228571D01*
X115828571Y-116180952D01*
X115271428Y-116657142D02*
X115228571Y-116704761D01*
X115271428Y-116752380D01*
X115314285Y-116704761D01*
X115271428Y-116657142D01*
X115271428Y-116752380D01*
X114371428Y-116752380D02*
X114885714Y-116752380D01*
X114628571Y-116752380D02*
X114628571Y-115752380D01*
X114714285Y-115895238D01*
X114800000Y-115990476D01*
X114885714Y-116038095D01*
X114114285Y-115752380D02*
X113814285Y-116752380D01*
X113514285Y-115752380D01*
G04 #@! TO.C,J18*
D13*
X111919350Y-117828638D02*
X112276493Y-117828638D01*
X112347921Y-117804828D01*
X112395540Y-117757209D01*
X112419350Y-117685780D01*
X112419350Y-117638161D01*
X112419350Y-118328638D02*
X112419350Y-118042923D01*
X112419350Y-118185780D02*
X111919350Y-118185780D01*
X111990779Y-118138161D01*
X112038398Y-118090542D01*
X112062207Y-118042923D01*
X112133636Y-118614352D02*
X112109826Y-118566733D01*
X112086017Y-118542923D01*
X112038398Y-118519114D01*
X112014588Y-118519114D01*
X111966969Y-118542923D01*
X111943160Y-118566733D01*
X111919350Y-118614352D01*
X111919350Y-118709590D01*
X111943160Y-118757209D01*
X111966969Y-118781019D01*
X112014588Y-118804828D01*
X112038398Y-118804828D01*
X112086017Y-118781019D01*
X112109826Y-118757209D01*
X112133636Y-118709590D01*
X112133636Y-118614352D01*
X112157445Y-118566733D01*
X112181255Y-118542923D01*
X112228874Y-118519114D01*
X112324112Y-118519114D01*
X112371731Y-118542923D01*
X112395540Y-118566733D01*
X112419350Y-118614352D01*
X112419350Y-118709590D01*
X112395540Y-118757209D01*
X112371731Y-118781019D01*
X112324112Y-118804828D01*
X112228874Y-118804828D01*
X112181255Y-118781019D01*
X112157445Y-118757209D01*
X112133636Y-118709590D01*
D14*
X111407142Y-116371428D02*
X110721428Y-116371428D01*
X110164285Y-116180952D02*
X110250000Y-116133333D01*
X110292857Y-116085714D01*
X110335714Y-115990476D01*
X110335714Y-115942857D01*
X110292857Y-115847619D01*
X110250000Y-115800000D01*
X110164285Y-115752380D01*
X109992857Y-115752380D01*
X109907142Y-115800000D01*
X109864285Y-115847619D01*
X109821428Y-115942857D01*
X109821428Y-115990476D01*
X109864285Y-116085714D01*
X109907142Y-116133333D01*
X109992857Y-116180952D01*
X110164285Y-116180952D01*
X110250000Y-116228571D01*
X110292857Y-116276190D01*
X110335714Y-116371428D01*
X110335714Y-116561904D01*
X110292857Y-116657142D01*
X110250000Y-116704761D01*
X110164285Y-116752380D01*
X109992857Y-116752380D01*
X109907142Y-116704761D01*
X109864285Y-116657142D01*
X109821428Y-116561904D01*
X109821428Y-116371428D01*
X109864285Y-116276190D01*
X109907142Y-116228571D01*
X109992857Y-116180952D01*
X109435714Y-116657142D02*
X109392857Y-116704761D01*
X109435714Y-116752380D01*
X109478571Y-116704761D01*
X109435714Y-116657142D01*
X109435714Y-116752380D01*
X108535714Y-116752380D02*
X109050000Y-116752380D01*
X108792857Y-116752380D02*
X108792857Y-115752380D01*
X108878571Y-115895238D01*
X108964285Y-115990476D01*
X109050000Y-116038095D01*
X108278571Y-115752380D02*
X107978571Y-116752380D01*
X107678571Y-115752380D01*
X106821428Y-116085714D02*
X106478571Y-116085714D01*
X106692857Y-115752380D02*
X106692857Y-116609523D01*
X106650000Y-116704761D01*
X106564285Y-116752380D01*
X106478571Y-116752380D01*
X106050000Y-116752380D02*
X106135714Y-116704761D01*
X106178571Y-116657142D01*
X106221428Y-116561904D01*
X106221428Y-116276190D01*
X106178571Y-116180952D01*
X106135714Y-116133333D01*
X106050000Y-116085714D01*
X105921428Y-116085714D01*
X105835714Y-116133333D01*
X105792857Y-116180952D01*
X105750000Y-116276190D01*
X105750000Y-116561904D01*
X105792857Y-116657142D01*
X105835714Y-116704761D01*
X105921428Y-116752380D01*
X106050000Y-116752380D01*
X104550000Y-116180952D02*
X104635714Y-116133333D01*
X104678571Y-116085714D01*
X104721428Y-115990476D01*
X104721428Y-115942857D01*
X104678571Y-115847619D01*
X104635714Y-115800000D01*
X104550000Y-115752380D01*
X104378571Y-115752380D01*
X104292857Y-115800000D01*
X104250000Y-115847619D01*
X104207142Y-115942857D01*
X104207142Y-115990476D01*
X104250000Y-116085714D01*
X104292857Y-116133333D01*
X104378571Y-116180952D01*
X104550000Y-116180952D01*
X104635714Y-116228571D01*
X104678571Y-116276190D01*
X104721428Y-116371428D01*
X104721428Y-116561904D01*
X104678571Y-116657142D01*
X104635714Y-116704761D01*
X104550000Y-116752380D01*
X104378571Y-116752380D01*
X104292857Y-116704761D01*
X104250000Y-116657142D01*
X104207142Y-116561904D01*
X104207142Y-116371428D01*
X104250000Y-116276190D01*
X104292857Y-116228571D01*
X104378571Y-116180952D01*
X103821428Y-116657142D02*
X103778571Y-116704761D01*
X103821428Y-116752380D01*
X103864285Y-116704761D01*
X103821428Y-116657142D01*
X103821428Y-116752380D01*
X102921428Y-116752380D02*
X103435714Y-116752380D01*
X103178571Y-116752380D02*
X103178571Y-115752380D01*
X103264285Y-115895238D01*
X103350000Y-115990476D01*
X103435714Y-116038095D01*
X102664285Y-115752380D02*
X102364285Y-116752380D01*
X102064285Y-115752380D01*
G04 #@! TO.C,LED1*
D13*
X164316190Y-139860476D02*
X164316190Y-139622380D01*
X163816190Y-139622380D01*
X164054285Y-140027142D02*
X164054285Y-140193809D01*
X164316190Y-140265238D02*
X164316190Y-140027142D01*
X163816190Y-140027142D01*
X163816190Y-140265238D01*
X164316190Y-140479523D02*
X163816190Y-140479523D01*
X163816190Y-140598571D01*
X163840000Y-140670000D01*
X163887619Y-140717619D01*
X163935238Y-140741428D01*
X164030476Y-140765238D01*
X164101904Y-140765238D01*
X164197142Y-140741428D01*
X164244761Y-140717619D01*
X164292380Y-140670000D01*
X164316190Y-140598571D01*
X164316190Y-140479523D01*
X164316190Y-141241428D02*
X164316190Y-140955714D01*
X164316190Y-141098571D02*
X163816190Y-141098571D01*
X163887619Y-141050952D01*
X163935238Y-141003333D01*
X163959047Y-140955714D01*
G04 #@! TO.C,LED2*
X141416190Y-139860476D02*
X141416190Y-139622380D01*
X140916190Y-139622380D01*
X141154285Y-140027142D02*
X141154285Y-140193809D01*
X141416190Y-140265238D02*
X141416190Y-140027142D01*
X140916190Y-140027142D01*
X140916190Y-140265238D01*
X141416190Y-140479523D02*
X140916190Y-140479523D01*
X140916190Y-140598571D01*
X140940000Y-140670000D01*
X140987619Y-140717619D01*
X141035238Y-140741428D01*
X141130476Y-140765238D01*
X141201904Y-140765238D01*
X141297142Y-140741428D01*
X141344761Y-140717619D01*
X141392380Y-140670000D01*
X141416190Y-140598571D01*
X141416190Y-140479523D01*
X140963809Y-140955714D02*
X140940000Y-140979523D01*
X140916190Y-141027142D01*
X140916190Y-141146190D01*
X140940000Y-141193809D01*
X140963809Y-141217619D01*
X141011428Y-141241428D01*
X141059047Y-141241428D01*
X141130476Y-141217619D01*
X141416190Y-140931904D01*
X141416190Y-141241428D01*
G04 #@! TO.C,LED3*
X129966190Y-139860476D02*
X129966190Y-139622380D01*
X129466190Y-139622380D01*
X129704285Y-140027142D02*
X129704285Y-140193809D01*
X129966190Y-140265238D02*
X129966190Y-140027142D01*
X129466190Y-140027142D01*
X129466190Y-140265238D01*
X129966190Y-140479523D02*
X129466190Y-140479523D01*
X129466190Y-140598571D01*
X129490000Y-140670000D01*
X129537619Y-140717619D01*
X129585238Y-140741428D01*
X129680476Y-140765238D01*
X129751904Y-140765238D01*
X129847142Y-140741428D01*
X129894761Y-140717619D01*
X129942380Y-140670000D01*
X129966190Y-140598571D01*
X129966190Y-140479523D01*
X129466190Y-140931904D02*
X129466190Y-141241428D01*
X129656666Y-141074761D01*
X129656666Y-141146190D01*
X129680476Y-141193809D01*
X129704285Y-141217619D01*
X129751904Y-141241428D01*
X129870952Y-141241428D01*
X129918571Y-141217619D01*
X129942380Y-141193809D01*
X129966190Y-141146190D01*
X129966190Y-141003333D01*
X129942380Y-140955714D01*
X129918571Y-140931904D01*
G04 #@! TO.C,LED4*
X107066190Y-139860476D02*
X107066190Y-139622380D01*
X106566190Y-139622380D01*
X106804285Y-140027142D02*
X106804285Y-140193809D01*
X107066190Y-140265238D02*
X107066190Y-140027142D01*
X106566190Y-140027142D01*
X106566190Y-140265238D01*
X107066190Y-140479523D02*
X106566190Y-140479523D01*
X106566190Y-140598571D01*
X106590000Y-140670000D01*
X106637619Y-140717619D01*
X106685238Y-140741428D01*
X106780476Y-140765238D01*
X106851904Y-140765238D01*
X106947142Y-140741428D01*
X106994761Y-140717619D01*
X107042380Y-140670000D01*
X107066190Y-140598571D01*
X107066190Y-140479523D01*
X106732857Y-141193809D02*
X107066190Y-141193809D01*
X106542380Y-141074761D02*
X106899523Y-140955714D01*
X106899523Y-141265238D01*
G04 #@! TO.C,LED5*
X152866190Y-139860476D02*
X152866190Y-139622380D01*
X152366190Y-139622380D01*
X152604285Y-140027142D02*
X152604285Y-140193809D01*
X152866190Y-140265238D02*
X152866190Y-140027142D01*
X152366190Y-140027142D01*
X152366190Y-140265238D01*
X152866190Y-140479523D02*
X152366190Y-140479523D01*
X152366190Y-140598571D01*
X152390000Y-140670000D01*
X152437619Y-140717619D01*
X152485238Y-140741428D01*
X152580476Y-140765238D01*
X152651904Y-140765238D01*
X152747142Y-140741428D01*
X152794761Y-140717619D01*
X152842380Y-140670000D01*
X152866190Y-140598571D01*
X152866190Y-140479523D01*
X152366190Y-141217619D02*
X152366190Y-140979523D01*
X152604285Y-140955714D01*
X152580476Y-140979523D01*
X152556666Y-141027142D01*
X152556666Y-141146190D01*
X152580476Y-141193809D01*
X152604285Y-141217619D01*
X152651904Y-141241428D01*
X152770952Y-141241428D01*
X152818571Y-141217619D01*
X152842380Y-141193809D01*
X152866190Y-141146190D01*
X152866190Y-141027142D01*
X152842380Y-140979523D01*
X152818571Y-140955714D01*
G04 #@! TO.C,LED6*
X118516190Y-139860476D02*
X118516190Y-139622380D01*
X118016190Y-139622380D01*
X118254285Y-140027142D02*
X118254285Y-140193809D01*
X118516190Y-140265238D02*
X118516190Y-140027142D01*
X118016190Y-140027142D01*
X118016190Y-140265238D01*
X118516190Y-140479523D02*
X118016190Y-140479523D01*
X118016190Y-140598571D01*
X118040000Y-140670000D01*
X118087619Y-140717619D01*
X118135238Y-140741428D01*
X118230476Y-140765238D01*
X118301904Y-140765238D01*
X118397142Y-140741428D01*
X118444761Y-140717619D01*
X118492380Y-140670000D01*
X118516190Y-140598571D01*
X118516190Y-140479523D01*
X118016190Y-141193809D02*
X118016190Y-141098571D01*
X118040000Y-141050952D01*
X118063809Y-141027142D01*
X118135238Y-140979523D01*
X118230476Y-140955714D01*
X118420952Y-140955714D01*
X118468571Y-140979523D01*
X118492380Y-141003333D01*
X118516190Y-141050952D01*
X118516190Y-141146190D01*
X118492380Y-141193809D01*
X118468571Y-141217619D01*
X118420952Y-141241428D01*
X118301904Y-141241428D01*
X118254285Y-141217619D01*
X118230476Y-141193809D01*
X118206666Y-141146190D01*
X118206666Y-141050952D01*
X118230476Y-141003333D01*
X118254285Y-140979523D01*
X118301904Y-140955714D01*
G04 #@! TO.C,LED7*
X164609523Y-65926190D02*
X164847619Y-65926190D01*
X164847619Y-65426190D01*
X164442857Y-65664285D02*
X164276190Y-65664285D01*
X164204761Y-65926190D02*
X164442857Y-65926190D01*
X164442857Y-65426190D01*
X164204761Y-65426190D01*
X163990476Y-65926190D02*
X163990476Y-65426190D01*
X163871428Y-65426190D01*
X163800000Y-65450000D01*
X163752380Y-65497619D01*
X163728571Y-65545238D01*
X163704761Y-65640476D01*
X163704761Y-65711904D01*
X163728571Y-65807142D01*
X163752380Y-65854761D01*
X163800000Y-65902380D01*
X163871428Y-65926190D01*
X163990476Y-65926190D01*
X163538095Y-65426190D02*
X163204761Y-65426190D01*
X163419047Y-65926190D01*
G04 #@! TO.C,LED8*
X153159523Y-65926190D02*
X153397619Y-65926190D01*
X153397619Y-65426190D01*
X152992857Y-65664285D02*
X152826190Y-65664285D01*
X152754761Y-65926190D02*
X152992857Y-65926190D01*
X152992857Y-65426190D01*
X152754761Y-65426190D01*
X152540476Y-65926190D02*
X152540476Y-65426190D01*
X152421428Y-65426190D01*
X152350000Y-65450000D01*
X152302380Y-65497619D01*
X152278571Y-65545238D01*
X152254761Y-65640476D01*
X152254761Y-65711904D01*
X152278571Y-65807142D01*
X152302380Y-65854761D01*
X152350000Y-65902380D01*
X152421428Y-65926190D01*
X152540476Y-65926190D01*
X151969047Y-65640476D02*
X152016666Y-65616666D01*
X152040476Y-65592857D01*
X152064285Y-65545238D01*
X152064285Y-65521428D01*
X152040476Y-65473809D01*
X152016666Y-65450000D01*
X151969047Y-65426190D01*
X151873809Y-65426190D01*
X151826190Y-65450000D01*
X151802380Y-65473809D01*
X151778571Y-65521428D01*
X151778571Y-65545238D01*
X151802380Y-65592857D01*
X151826190Y-65616666D01*
X151873809Y-65640476D01*
X151969047Y-65640476D01*
X152016666Y-65664285D01*
X152040476Y-65688095D01*
X152064285Y-65735714D01*
X152064285Y-65830952D01*
X152040476Y-65878571D01*
X152016666Y-65902380D01*
X151969047Y-65926190D01*
X151873809Y-65926190D01*
X151826190Y-65902380D01*
X151802380Y-65878571D01*
X151778571Y-65830952D01*
X151778571Y-65735714D01*
X151802380Y-65688095D01*
X151826190Y-65664285D01*
X151873809Y-65640476D01*
G04 #@! TO.C,LED9*
X141709523Y-65926190D02*
X141947619Y-65926190D01*
X141947619Y-65426190D01*
X141542857Y-65664285D02*
X141376190Y-65664285D01*
X141304761Y-65926190D02*
X141542857Y-65926190D01*
X141542857Y-65426190D01*
X141304761Y-65426190D01*
X141090476Y-65926190D02*
X141090476Y-65426190D01*
X140971428Y-65426190D01*
X140900000Y-65450000D01*
X140852380Y-65497619D01*
X140828571Y-65545238D01*
X140804761Y-65640476D01*
X140804761Y-65711904D01*
X140828571Y-65807142D01*
X140852380Y-65854761D01*
X140900000Y-65902380D01*
X140971428Y-65926190D01*
X141090476Y-65926190D01*
X140566666Y-65926190D02*
X140471428Y-65926190D01*
X140423809Y-65902380D01*
X140400000Y-65878571D01*
X140352380Y-65807142D01*
X140328571Y-65711904D01*
X140328571Y-65521428D01*
X140352380Y-65473809D01*
X140376190Y-65450000D01*
X140423809Y-65426190D01*
X140519047Y-65426190D01*
X140566666Y-65450000D01*
X140590476Y-65473809D01*
X140614285Y-65521428D01*
X140614285Y-65640476D01*
X140590476Y-65688095D01*
X140566666Y-65711904D01*
X140519047Y-65735714D01*
X140423809Y-65735714D01*
X140376190Y-65711904D01*
X140352380Y-65688095D01*
X140328571Y-65640476D01*
G04 #@! TO.C,LED10*
X130497619Y-65926190D02*
X130735714Y-65926190D01*
X130735714Y-65426190D01*
X130330952Y-65664285D02*
X130164285Y-65664285D01*
X130092857Y-65926190D02*
X130330952Y-65926190D01*
X130330952Y-65426190D01*
X130092857Y-65426190D01*
X129878571Y-65926190D02*
X129878571Y-65426190D01*
X129759523Y-65426190D01*
X129688095Y-65450000D01*
X129640476Y-65497619D01*
X129616666Y-65545238D01*
X129592857Y-65640476D01*
X129592857Y-65711904D01*
X129616666Y-65807142D01*
X129640476Y-65854761D01*
X129688095Y-65902380D01*
X129759523Y-65926190D01*
X129878571Y-65926190D01*
X129116666Y-65926190D02*
X129402380Y-65926190D01*
X129259523Y-65926190D02*
X129259523Y-65426190D01*
X129307142Y-65497619D01*
X129354761Y-65545238D01*
X129402380Y-65569047D01*
X128807142Y-65426190D02*
X128759523Y-65426190D01*
X128711904Y-65450000D01*
X128688095Y-65473809D01*
X128664285Y-65521428D01*
X128640476Y-65616666D01*
X128640476Y-65735714D01*
X128664285Y-65830952D01*
X128688095Y-65878571D01*
X128711904Y-65902380D01*
X128759523Y-65926190D01*
X128807142Y-65926190D01*
X128854761Y-65902380D01*
X128878571Y-65878571D01*
X128902380Y-65830952D01*
X128926190Y-65735714D01*
X128926190Y-65616666D01*
X128902380Y-65521428D01*
X128878571Y-65473809D01*
X128854761Y-65450000D01*
X128807142Y-65426190D01*
G04 #@! TO.C,LED11*
X119047619Y-65926190D02*
X119285714Y-65926190D01*
X119285714Y-65426190D01*
X118880952Y-65664285D02*
X118714285Y-65664285D01*
X118642857Y-65926190D02*
X118880952Y-65926190D01*
X118880952Y-65426190D01*
X118642857Y-65426190D01*
X118428571Y-65926190D02*
X118428571Y-65426190D01*
X118309523Y-65426190D01*
X118238095Y-65450000D01*
X118190476Y-65497619D01*
X118166666Y-65545238D01*
X118142857Y-65640476D01*
X118142857Y-65711904D01*
X118166666Y-65807142D01*
X118190476Y-65854761D01*
X118238095Y-65902380D01*
X118309523Y-65926190D01*
X118428571Y-65926190D01*
X117666666Y-65926190D02*
X117952380Y-65926190D01*
X117809523Y-65926190D02*
X117809523Y-65426190D01*
X117857142Y-65497619D01*
X117904761Y-65545238D01*
X117952380Y-65569047D01*
X117190476Y-65926190D02*
X117476190Y-65926190D01*
X117333333Y-65926190D02*
X117333333Y-65426190D01*
X117380952Y-65497619D01*
X117428571Y-65545238D01*
X117476190Y-65569047D01*
G04 #@! TO.C,LED12*
X107597619Y-65926190D02*
X107835714Y-65926190D01*
X107835714Y-65426190D01*
X107430952Y-65664285D02*
X107264285Y-65664285D01*
X107192857Y-65926190D02*
X107430952Y-65926190D01*
X107430952Y-65426190D01*
X107192857Y-65426190D01*
X106978571Y-65926190D02*
X106978571Y-65426190D01*
X106859523Y-65426190D01*
X106788095Y-65450000D01*
X106740476Y-65497619D01*
X106716666Y-65545238D01*
X106692857Y-65640476D01*
X106692857Y-65711904D01*
X106716666Y-65807142D01*
X106740476Y-65854761D01*
X106788095Y-65902380D01*
X106859523Y-65926190D01*
X106978571Y-65926190D01*
X106216666Y-65926190D02*
X106502380Y-65926190D01*
X106359523Y-65926190D02*
X106359523Y-65426190D01*
X106407142Y-65497619D01*
X106454761Y-65545238D01*
X106502380Y-65569047D01*
X106026190Y-65473809D02*
X106002380Y-65450000D01*
X105954761Y-65426190D01*
X105835714Y-65426190D01*
X105788095Y-65450000D01*
X105764285Y-65473809D01*
X105740476Y-65521428D01*
X105740476Y-65569047D01*
X105764285Y-65640476D01*
X106050000Y-65926190D01*
X105740476Y-65926190D01*
G04 #@! TO.C,R78*
X158526190Y-90578571D02*
X158288095Y-90411904D01*
X158526190Y-90292857D02*
X158026190Y-90292857D01*
X158026190Y-90483333D01*
X158050000Y-90530952D01*
X158073809Y-90554761D01*
X158121428Y-90578571D01*
X158192857Y-90578571D01*
X158240476Y-90554761D01*
X158264285Y-90530952D01*
X158288095Y-90483333D01*
X158288095Y-90292857D01*
X158026190Y-90745238D02*
X158026190Y-91078571D01*
X158526190Y-90864285D01*
X158240476Y-91340476D02*
X158216666Y-91292857D01*
X158192857Y-91269047D01*
X158145238Y-91245238D01*
X158121428Y-91245238D01*
X158073809Y-91269047D01*
X158050000Y-91292857D01*
X158026190Y-91340476D01*
X158026190Y-91435714D01*
X158050000Y-91483333D01*
X158073809Y-91507142D01*
X158121428Y-91530952D01*
X158145238Y-91530952D01*
X158192857Y-91507142D01*
X158216666Y-91483333D01*
X158240476Y-91435714D01*
X158240476Y-91340476D01*
X158264285Y-91292857D01*
X158288095Y-91269047D01*
X158335714Y-91245238D01*
X158430952Y-91245238D01*
X158478571Y-91269047D01*
X158502380Y-91292857D01*
X158526190Y-91340476D01*
X158526190Y-91435714D01*
X158502380Y-91483333D01*
X158478571Y-91507142D01*
X158430952Y-91530952D01*
X158335714Y-91530952D01*
X158288095Y-91507142D01*
X158264285Y-91483333D01*
X158240476Y-91435714D01*
G04 #@! TO.C,R79*
X158576190Y-90578571D02*
X158338095Y-90411904D01*
X158576190Y-90292857D02*
X158076190Y-90292857D01*
X158076190Y-90483333D01*
X158100000Y-90530952D01*
X158123809Y-90554761D01*
X158171428Y-90578571D01*
X158242857Y-90578571D01*
X158290476Y-90554761D01*
X158314285Y-90530952D01*
X158338095Y-90483333D01*
X158338095Y-90292857D01*
X158076190Y-90745238D02*
X158076190Y-91078571D01*
X158576190Y-90864285D01*
X158576190Y-91292857D02*
X158576190Y-91388095D01*
X158552380Y-91435714D01*
X158528571Y-91459523D01*
X158457142Y-91507142D01*
X158361904Y-91530952D01*
X158171428Y-91530952D01*
X158123809Y-91507142D01*
X158100000Y-91483333D01*
X158076190Y-91435714D01*
X158076190Y-91340476D01*
X158100000Y-91292857D01*
X158123809Y-91269047D01*
X158171428Y-91245238D01*
X158290476Y-91245238D01*
X158338095Y-91269047D01*
X158361904Y-91292857D01*
X158385714Y-91340476D01*
X158385714Y-91435714D01*
X158361904Y-91483333D01*
X158338095Y-91507142D01*
X158290476Y-91530952D01*
G04 #@! TO.C,R80*
X147126190Y-90578571D02*
X146888095Y-90411904D01*
X147126190Y-90292857D02*
X146626190Y-90292857D01*
X146626190Y-90483333D01*
X146650000Y-90530952D01*
X146673809Y-90554761D01*
X146721428Y-90578571D01*
X146792857Y-90578571D01*
X146840476Y-90554761D01*
X146864285Y-90530952D01*
X146888095Y-90483333D01*
X146888095Y-90292857D01*
X146840476Y-90864285D02*
X146816666Y-90816666D01*
X146792857Y-90792857D01*
X146745238Y-90769047D01*
X146721428Y-90769047D01*
X146673809Y-90792857D01*
X146650000Y-90816666D01*
X146626190Y-90864285D01*
X146626190Y-90959523D01*
X146650000Y-91007142D01*
X146673809Y-91030952D01*
X146721428Y-91054761D01*
X146745238Y-91054761D01*
X146792857Y-91030952D01*
X146816666Y-91007142D01*
X146840476Y-90959523D01*
X146840476Y-90864285D01*
X146864285Y-90816666D01*
X146888095Y-90792857D01*
X146935714Y-90769047D01*
X147030952Y-90769047D01*
X147078571Y-90792857D01*
X147102380Y-90816666D01*
X147126190Y-90864285D01*
X147126190Y-90959523D01*
X147102380Y-91007142D01*
X147078571Y-91030952D01*
X147030952Y-91054761D01*
X146935714Y-91054761D01*
X146888095Y-91030952D01*
X146864285Y-91007142D01*
X146840476Y-90959523D01*
X146626190Y-91364285D02*
X146626190Y-91411904D01*
X146650000Y-91459523D01*
X146673809Y-91483333D01*
X146721428Y-91507142D01*
X146816666Y-91530952D01*
X146935714Y-91530952D01*
X147030952Y-91507142D01*
X147078571Y-91483333D01*
X147102380Y-91459523D01*
X147126190Y-91411904D01*
X147126190Y-91364285D01*
X147102380Y-91316666D01*
X147078571Y-91292857D01*
X147030952Y-91269047D01*
X146935714Y-91245238D01*
X146816666Y-91245238D01*
X146721428Y-91269047D01*
X146673809Y-91292857D01*
X146650000Y-91316666D01*
X146626190Y-91364285D01*
G04 #@! TO.C,R81*
X130126190Y-90678571D02*
X129888095Y-90511904D01*
X130126190Y-90392857D02*
X129626190Y-90392857D01*
X129626190Y-90583333D01*
X129650000Y-90630952D01*
X129673809Y-90654761D01*
X129721428Y-90678571D01*
X129792857Y-90678571D01*
X129840476Y-90654761D01*
X129864285Y-90630952D01*
X129888095Y-90583333D01*
X129888095Y-90392857D01*
X129840476Y-90964285D02*
X129816666Y-90916666D01*
X129792857Y-90892857D01*
X129745238Y-90869047D01*
X129721428Y-90869047D01*
X129673809Y-90892857D01*
X129650000Y-90916666D01*
X129626190Y-90964285D01*
X129626190Y-91059523D01*
X129650000Y-91107142D01*
X129673809Y-91130952D01*
X129721428Y-91154761D01*
X129745238Y-91154761D01*
X129792857Y-91130952D01*
X129816666Y-91107142D01*
X129840476Y-91059523D01*
X129840476Y-90964285D01*
X129864285Y-90916666D01*
X129888095Y-90892857D01*
X129935714Y-90869047D01*
X130030952Y-90869047D01*
X130078571Y-90892857D01*
X130102380Y-90916666D01*
X130126190Y-90964285D01*
X130126190Y-91059523D01*
X130102380Y-91107142D01*
X130078571Y-91130952D01*
X130030952Y-91154761D01*
X129935714Y-91154761D01*
X129888095Y-91130952D01*
X129864285Y-91107142D01*
X129840476Y-91059523D01*
X130126190Y-91630952D02*
X130126190Y-91345238D01*
X130126190Y-91488095D02*
X129626190Y-91488095D01*
X129697619Y-91440476D01*
X129745238Y-91392857D01*
X129769047Y-91345238D01*
G04 #@! TO.C,R82*
X118526190Y-90978571D02*
X118288095Y-90811904D01*
X118526190Y-90692857D02*
X118026190Y-90692857D01*
X118026190Y-90883333D01*
X118050000Y-90930952D01*
X118073809Y-90954761D01*
X118121428Y-90978571D01*
X118192857Y-90978571D01*
X118240476Y-90954761D01*
X118264285Y-90930952D01*
X118288095Y-90883333D01*
X118288095Y-90692857D01*
X118240476Y-91264285D02*
X118216666Y-91216666D01*
X118192857Y-91192857D01*
X118145238Y-91169047D01*
X118121428Y-91169047D01*
X118073809Y-91192857D01*
X118050000Y-91216666D01*
X118026190Y-91264285D01*
X118026190Y-91359523D01*
X118050000Y-91407142D01*
X118073809Y-91430952D01*
X118121428Y-91454761D01*
X118145238Y-91454761D01*
X118192857Y-91430952D01*
X118216666Y-91407142D01*
X118240476Y-91359523D01*
X118240476Y-91264285D01*
X118264285Y-91216666D01*
X118288095Y-91192857D01*
X118335714Y-91169047D01*
X118430952Y-91169047D01*
X118478571Y-91192857D01*
X118502380Y-91216666D01*
X118526190Y-91264285D01*
X118526190Y-91359523D01*
X118502380Y-91407142D01*
X118478571Y-91430952D01*
X118430952Y-91454761D01*
X118335714Y-91454761D01*
X118288095Y-91430952D01*
X118264285Y-91407142D01*
X118240476Y-91359523D01*
X118073809Y-91645238D02*
X118050000Y-91669047D01*
X118026190Y-91716666D01*
X118026190Y-91835714D01*
X118050000Y-91883333D01*
X118073809Y-91907142D01*
X118121428Y-91930952D01*
X118169047Y-91930952D01*
X118240476Y-91907142D01*
X118526190Y-91621428D01*
X118526190Y-91930952D01*
G04 #@! TO.C,R83*
X106926190Y-90578571D02*
X106688095Y-90411904D01*
X106926190Y-90292857D02*
X106426190Y-90292857D01*
X106426190Y-90483333D01*
X106450000Y-90530952D01*
X106473809Y-90554761D01*
X106521428Y-90578571D01*
X106592857Y-90578571D01*
X106640476Y-90554761D01*
X106664285Y-90530952D01*
X106688095Y-90483333D01*
X106688095Y-90292857D01*
X106640476Y-90864285D02*
X106616666Y-90816666D01*
X106592857Y-90792857D01*
X106545238Y-90769047D01*
X106521428Y-90769047D01*
X106473809Y-90792857D01*
X106450000Y-90816666D01*
X106426190Y-90864285D01*
X106426190Y-90959523D01*
X106450000Y-91007142D01*
X106473809Y-91030952D01*
X106521428Y-91054761D01*
X106545238Y-91054761D01*
X106592857Y-91030952D01*
X106616666Y-91007142D01*
X106640476Y-90959523D01*
X106640476Y-90864285D01*
X106664285Y-90816666D01*
X106688095Y-90792857D01*
X106735714Y-90769047D01*
X106830952Y-90769047D01*
X106878571Y-90792857D01*
X106902380Y-90816666D01*
X106926190Y-90864285D01*
X106926190Y-90959523D01*
X106902380Y-91007142D01*
X106878571Y-91030952D01*
X106830952Y-91054761D01*
X106735714Y-91054761D01*
X106688095Y-91030952D01*
X106664285Y-91007142D01*
X106640476Y-90959523D01*
X106426190Y-91221428D02*
X106426190Y-91530952D01*
X106616666Y-91364285D01*
X106616666Y-91435714D01*
X106640476Y-91483333D01*
X106664285Y-91507142D01*
X106711904Y-91530952D01*
X106830952Y-91530952D01*
X106878571Y-91507142D01*
X106902380Y-91483333D01*
X106926190Y-91435714D01*
X106926190Y-91292857D01*
X106902380Y-91245238D01*
X106878571Y-91221428D01*
G04 #@! TO.C,SW1*
X164716666Y-73652380D02*
X164645238Y-73676190D01*
X164526190Y-73676190D01*
X164478571Y-73652380D01*
X164454761Y-73628571D01*
X164430952Y-73580952D01*
X164430952Y-73533333D01*
X164454761Y-73485714D01*
X164478571Y-73461904D01*
X164526190Y-73438095D01*
X164621428Y-73414285D01*
X164669047Y-73390476D01*
X164692857Y-73366666D01*
X164716666Y-73319047D01*
X164716666Y-73271428D01*
X164692857Y-73223809D01*
X164669047Y-73200000D01*
X164621428Y-73176190D01*
X164502380Y-73176190D01*
X164430952Y-73200000D01*
X164264285Y-73176190D02*
X164145238Y-73676190D01*
X164050000Y-73319047D01*
X163954761Y-73676190D01*
X163835714Y-73176190D01*
X163383333Y-73676190D02*
X163669047Y-73676190D01*
X163526190Y-73676190D02*
X163526190Y-73176190D01*
X163573809Y-73247619D01*
X163621428Y-73295238D01*
X163669047Y-73319047D01*
G04 #@! TO.C,SW2*
X153266666Y-73652380D02*
X153195238Y-73676190D01*
X153076190Y-73676190D01*
X153028571Y-73652380D01*
X153004761Y-73628571D01*
X152980952Y-73580952D01*
X152980952Y-73533333D01*
X153004761Y-73485714D01*
X153028571Y-73461904D01*
X153076190Y-73438095D01*
X153171428Y-73414285D01*
X153219047Y-73390476D01*
X153242857Y-73366666D01*
X153266666Y-73319047D01*
X153266666Y-73271428D01*
X153242857Y-73223809D01*
X153219047Y-73200000D01*
X153171428Y-73176190D01*
X153052380Y-73176190D01*
X152980952Y-73200000D01*
X152814285Y-73176190D02*
X152695238Y-73676190D01*
X152600000Y-73319047D01*
X152504761Y-73676190D01*
X152385714Y-73176190D01*
X152219047Y-73223809D02*
X152195238Y-73200000D01*
X152147619Y-73176190D01*
X152028571Y-73176190D01*
X151980952Y-73200000D01*
X151957142Y-73223809D01*
X151933333Y-73271428D01*
X151933333Y-73319047D01*
X151957142Y-73390476D01*
X152242857Y-73676190D01*
X151933333Y-73676190D01*
G04 #@! TO.C,SW3*
X141816666Y-73652380D02*
X141745238Y-73676190D01*
X141626190Y-73676190D01*
X141578571Y-73652380D01*
X141554761Y-73628571D01*
X141530952Y-73580952D01*
X141530952Y-73533333D01*
X141554761Y-73485714D01*
X141578571Y-73461904D01*
X141626190Y-73438095D01*
X141721428Y-73414285D01*
X141769047Y-73390476D01*
X141792857Y-73366666D01*
X141816666Y-73319047D01*
X141816666Y-73271428D01*
X141792857Y-73223809D01*
X141769047Y-73200000D01*
X141721428Y-73176190D01*
X141602380Y-73176190D01*
X141530952Y-73200000D01*
X141364285Y-73176190D02*
X141245238Y-73676190D01*
X141150000Y-73319047D01*
X141054761Y-73676190D01*
X140935714Y-73176190D01*
X140792857Y-73176190D02*
X140483333Y-73176190D01*
X140650000Y-73366666D01*
X140578571Y-73366666D01*
X140530952Y-73390476D01*
X140507142Y-73414285D01*
X140483333Y-73461904D01*
X140483333Y-73580952D01*
X140507142Y-73628571D01*
X140530952Y-73652380D01*
X140578571Y-73676190D01*
X140721428Y-73676190D01*
X140769047Y-73652380D01*
X140792857Y-73628571D01*
G04 #@! TO.C,SW4*
X130366666Y-73652380D02*
X130295238Y-73676190D01*
X130176190Y-73676190D01*
X130128571Y-73652380D01*
X130104761Y-73628571D01*
X130080952Y-73580952D01*
X130080952Y-73533333D01*
X130104761Y-73485714D01*
X130128571Y-73461904D01*
X130176190Y-73438095D01*
X130271428Y-73414285D01*
X130319047Y-73390476D01*
X130342857Y-73366666D01*
X130366666Y-73319047D01*
X130366666Y-73271428D01*
X130342857Y-73223809D01*
X130319047Y-73200000D01*
X130271428Y-73176190D01*
X130152380Y-73176190D01*
X130080952Y-73200000D01*
X129914285Y-73176190D02*
X129795238Y-73676190D01*
X129700000Y-73319047D01*
X129604761Y-73676190D01*
X129485714Y-73176190D01*
X129080952Y-73342857D02*
X129080952Y-73676190D01*
X129200000Y-73152380D02*
X129319047Y-73509523D01*
X129009523Y-73509523D01*
G04 #@! TO.C,SW5*
X118916666Y-73652380D02*
X118845238Y-73676190D01*
X118726190Y-73676190D01*
X118678571Y-73652380D01*
X118654761Y-73628571D01*
X118630952Y-73580952D01*
X118630952Y-73533333D01*
X118654761Y-73485714D01*
X118678571Y-73461904D01*
X118726190Y-73438095D01*
X118821428Y-73414285D01*
X118869047Y-73390476D01*
X118892857Y-73366666D01*
X118916666Y-73319047D01*
X118916666Y-73271428D01*
X118892857Y-73223809D01*
X118869047Y-73200000D01*
X118821428Y-73176190D01*
X118702380Y-73176190D01*
X118630952Y-73200000D01*
X118464285Y-73176190D02*
X118345238Y-73676190D01*
X118250000Y-73319047D01*
X118154761Y-73676190D01*
X118035714Y-73176190D01*
X117607142Y-73176190D02*
X117845238Y-73176190D01*
X117869047Y-73414285D01*
X117845238Y-73390476D01*
X117797619Y-73366666D01*
X117678571Y-73366666D01*
X117630952Y-73390476D01*
X117607142Y-73414285D01*
X117583333Y-73461904D01*
X117583333Y-73580952D01*
X117607142Y-73628571D01*
X117630952Y-73652380D01*
X117678571Y-73676190D01*
X117797619Y-73676190D01*
X117845238Y-73652380D01*
X117869047Y-73628571D01*
G04 #@! TO.C,SW6*
X107466666Y-73652380D02*
X107395238Y-73676190D01*
X107276190Y-73676190D01*
X107228571Y-73652380D01*
X107204761Y-73628571D01*
X107180952Y-73580952D01*
X107180952Y-73533333D01*
X107204761Y-73485714D01*
X107228571Y-73461904D01*
X107276190Y-73438095D01*
X107371428Y-73414285D01*
X107419047Y-73390476D01*
X107442857Y-73366666D01*
X107466666Y-73319047D01*
X107466666Y-73271428D01*
X107442857Y-73223809D01*
X107419047Y-73200000D01*
X107371428Y-73176190D01*
X107252380Y-73176190D01*
X107180952Y-73200000D01*
X107014285Y-73176190D02*
X106895238Y-73676190D01*
X106800000Y-73319047D01*
X106704761Y-73676190D01*
X106585714Y-73176190D01*
X106180952Y-73176190D02*
X106276190Y-73176190D01*
X106323809Y-73200000D01*
X106347619Y-73223809D01*
X106395238Y-73295238D01*
X106419047Y-73390476D01*
X106419047Y-73580952D01*
X106395238Y-73628571D01*
X106371428Y-73652380D01*
X106323809Y-73676190D01*
X106228571Y-73676190D01*
X106180952Y-73652380D01*
X106157142Y-73628571D01*
X106133333Y-73580952D01*
X106133333Y-73461904D01*
X106157142Y-73414285D01*
X106180952Y-73390476D01*
X106228571Y-73366666D01*
X106323809Y-73366666D01*
X106371428Y-73390476D01*
X106395238Y-73414285D01*
X106419047Y-73461904D01*
G04 #@! TO.C,R84*
X164321428Y-52726190D02*
X164488095Y-52488095D01*
X164607142Y-52726190D02*
X164607142Y-52226190D01*
X164416666Y-52226190D01*
X164369047Y-52250000D01*
X164345238Y-52273809D01*
X164321428Y-52321428D01*
X164321428Y-52392857D01*
X164345238Y-52440476D01*
X164369047Y-52464285D01*
X164416666Y-52488095D01*
X164607142Y-52488095D01*
X164035714Y-52440476D02*
X164083333Y-52416666D01*
X164107142Y-52392857D01*
X164130952Y-52345238D01*
X164130952Y-52321428D01*
X164107142Y-52273809D01*
X164083333Y-52250000D01*
X164035714Y-52226190D01*
X163940476Y-52226190D01*
X163892857Y-52250000D01*
X163869047Y-52273809D01*
X163845238Y-52321428D01*
X163845238Y-52345238D01*
X163869047Y-52392857D01*
X163892857Y-52416666D01*
X163940476Y-52440476D01*
X164035714Y-52440476D01*
X164083333Y-52464285D01*
X164107142Y-52488095D01*
X164130952Y-52535714D01*
X164130952Y-52630952D01*
X164107142Y-52678571D01*
X164083333Y-52702380D01*
X164035714Y-52726190D01*
X163940476Y-52726190D01*
X163892857Y-52702380D01*
X163869047Y-52678571D01*
X163845238Y-52630952D01*
X163845238Y-52535714D01*
X163869047Y-52488095D01*
X163892857Y-52464285D01*
X163940476Y-52440476D01*
X163416666Y-52392857D02*
X163416666Y-52726190D01*
X163535714Y-52202380D02*
X163654761Y-52559523D01*
X163345238Y-52559523D01*
G04 #@! TO.C,R85*
X152921428Y-52726190D02*
X153088095Y-52488095D01*
X153207142Y-52726190D02*
X153207142Y-52226190D01*
X153016666Y-52226190D01*
X152969047Y-52250000D01*
X152945238Y-52273809D01*
X152921428Y-52321428D01*
X152921428Y-52392857D01*
X152945238Y-52440476D01*
X152969047Y-52464285D01*
X153016666Y-52488095D01*
X153207142Y-52488095D01*
X152635714Y-52440476D02*
X152683333Y-52416666D01*
X152707142Y-52392857D01*
X152730952Y-52345238D01*
X152730952Y-52321428D01*
X152707142Y-52273809D01*
X152683333Y-52250000D01*
X152635714Y-52226190D01*
X152540476Y-52226190D01*
X152492857Y-52250000D01*
X152469047Y-52273809D01*
X152445238Y-52321428D01*
X152445238Y-52345238D01*
X152469047Y-52392857D01*
X152492857Y-52416666D01*
X152540476Y-52440476D01*
X152635714Y-52440476D01*
X152683333Y-52464285D01*
X152707142Y-52488095D01*
X152730952Y-52535714D01*
X152730952Y-52630952D01*
X152707142Y-52678571D01*
X152683333Y-52702380D01*
X152635714Y-52726190D01*
X152540476Y-52726190D01*
X152492857Y-52702380D01*
X152469047Y-52678571D01*
X152445238Y-52630952D01*
X152445238Y-52535714D01*
X152469047Y-52488095D01*
X152492857Y-52464285D01*
X152540476Y-52440476D01*
X151992857Y-52226190D02*
X152230952Y-52226190D01*
X152254761Y-52464285D01*
X152230952Y-52440476D01*
X152183333Y-52416666D01*
X152064285Y-52416666D01*
X152016666Y-52440476D01*
X151992857Y-52464285D01*
X151969047Y-52511904D01*
X151969047Y-52630952D01*
X151992857Y-52678571D01*
X152016666Y-52702380D01*
X152064285Y-52726190D01*
X152183333Y-52726190D01*
X152230952Y-52702380D01*
X152254761Y-52678571D01*
G04 #@! TO.C,R86*
X141421428Y-52826190D02*
X141588095Y-52588095D01*
X141707142Y-52826190D02*
X141707142Y-52326190D01*
X141516666Y-52326190D01*
X141469047Y-52350000D01*
X141445238Y-52373809D01*
X141421428Y-52421428D01*
X141421428Y-52492857D01*
X141445238Y-52540476D01*
X141469047Y-52564285D01*
X141516666Y-52588095D01*
X141707142Y-52588095D01*
X141135714Y-52540476D02*
X141183333Y-52516666D01*
X141207142Y-52492857D01*
X141230952Y-52445238D01*
X141230952Y-52421428D01*
X141207142Y-52373809D01*
X141183333Y-52350000D01*
X141135714Y-52326190D01*
X141040476Y-52326190D01*
X140992857Y-52350000D01*
X140969047Y-52373809D01*
X140945238Y-52421428D01*
X140945238Y-52445238D01*
X140969047Y-52492857D01*
X140992857Y-52516666D01*
X141040476Y-52540476D01*
X141135714Y-52540476D01*
X141183333Y-52564285D01*
X141207142Y-52588095D01*
X141230952Y-52635714D01*
X141230952Y-52730952D01*
X141207142Y-52778571D01*
X141183333Y-52802380D01*
X141135714Y-52826190D01*
X141040476Y-52826190D01*
X140992857Y-52802380D01*
X140969047Y-52778571D01*
X140945238Y-52730952D01*
X140945238Y-52635714D01*
X140969047Y-52588095D01*
X140992857Y-52564285D01*
X141040476Y-52540476D01*
X140516666Y-52326190D02*
X140611904Y-52326190D01*
X140659523Y-52350000D01*
X140683333Y-52373809D01*
X140730952Y-52445238D01*
X140754761Y-52540476D01*
X140754761Y-52730952D01*
X140730952Y-52778571D01*
X140707142Y-52802380D01*
X140659523Y-52826190D01*
X140564285Y-52826190D01*
X140516666Y-52802380D01*
X140492857Y-52778571D01*
X140469047Y-52730952D01*
X140469047Y-52611904D01*
X140492857Y-52564285D01*
X140516666Y-52540476D01*
X140564285Y-52516666D01*
X140659523Y-52516666D01*
X140707142Y-52540476D01*
X140730952Y-52564285D01*
X140754761Y-52611904D01*
G04 #@! TO.C,R87*
X130021428Y-52826190D02*
X130188095Y-52588095D01*
X130307142Y-52826190D02*
X130307142Y-52326190D01*
X130116666Y-52326190D01*
X130069047Y-52350000D01*
X130045238Y-52373809D01*
X130021428Y-52421428D01*
X130021428Y-52492857D01*
X130045238Y-52540476D01*
X130069047Y-52564285D01*
X130116666Y-52588095D01*
X130307142Y-52588095D01*
X129735714Y-52540476D02*
X129783333Y-52516666D01*
X129807142Y-52492857D01*
X129830952Y-52445238D01*
X129830952Y-52421428D01*
X129807142Y-52373809D01*
X129783333Y-52350000D01*
X129735714Y-52326190D01*
X129640476Y-52326190D01*
X129592857Y-52350000D01*
X129569047Y-52373809D01*
X129545238Y-52421428D01*
X129545238Y-52445238D01*
X129569047Y-52492857D01*
X129592857Y-52516666D01*
X129640476Y-52540476D01*
X129735714Y-52540476D01*
X129783333Y-52564285D01*
X129807142Y-52588095D01*
X129830952Y-52635714D01*
X129830952Y-52730952D01*
X129807142Y-52778571D01*
X129783333Y-52802380D01*
X129735714Y-52826190D01*
X129640476Y-52826190D01*
X129592857Y-52802380D01*
X129569047Y-52778571D01*
X129545238Y-52730952D01*
X129545238Y-52635714D01*
X129569047Y-52588095D01*
X129592857Y-52564285D01*
X129640476Y-52540476D01*
X129378571Y-52326190D02*
X129045238Y-52326190D01*
X129259523Y-52826190D01*
G04 #@! TO.C,R88*
X118621428Y-52726190D02*
X118788095Y-52488095D01*
X118907142Y-52726190D02*
X118907142Y-52226190D01*
X118716666Y-52226190D01*
X118669047Y-52250000D01*
X118645238Y-52273809D01*
X118621428Y-52321428D01*
X118621428Y-52392857D01*
X118645238Y-52440476D01*
X118669047Y-52464285D01*
X118716666Y-52488095D01*
X118907142Y-52488095D01*
X118335714Y-52440476D02*
X118383333Y-52416666D01*
X118407142Y-52392857D01*
X118430952Y-52345238D01*
X118430952Y-52321428D01*
X118407142Y-52273809D01*
X118383333Y-52250000D01*
X118335714Y-52226190D01*
X118240476Y-52226190D01*
X118192857Y-52250000D01*
X118169047Y-52273809D01*
X118145238Y-52321428D01*
X118145238Y-52345238D01*
X118169047Y-52392857D01*
X118192857Y-52416666D01*
X118240476Y-52440476D01*
X118335714Y-52440476D01*
X118383333Y-52464285D01*
X118407142Y-52488095D01*
X118430952Y-52535714D01*
X118430952Y-52630952D01*
X118407142Y-52678571D01*
X118383333Y-52702380D01*
X118335714Y-52726190D01*
X118240476Y-52726190D01*
X118192857Y-52702380D01*
X118169047Y-52678571D01*
X118145238Y-52630952D01*
X118145238Y-52535714D01*
X118169047Y-52488095D01*
X118192857Y-52464285D01*
X118240476Y-52440476D01*
X117859523Y-52440476D02*
X117907142Y-52416666D01*
X117930952Y-52392857D01*
X117954761Y-52345238D01*
X117954761Y-52321428D01*
X117930952Y-52273809D01*
X117907142Y-52250000D01*
X117859523Y-52226190D01*
X117764285Y-52226190D01*
X117716666Y-52250000D01*
X117692857Y-52273809D01*
X117669047Y-52321428D01*
X117669047Y-52345238D01*
X117692857Y-52392857D01*
X117716666Y-52416666D01*
X117764285Y-52440476D01*
X117859523Y-52440476D01*
X117907142Y-52464285D01*
X117930952Y-52488095D01*
X117954761Y-52535714D01*
X117954761Y-52630952D01*
X117930952Y-52678571D01*
X117907142Y-52702380D01*
X117859523Y-52726190D01*
X117764285Y-52726190D01*
X117716666Y-52702380D01*
X117692857Y-52678571D01*
X117669047Y-52630952D01*
X117669047Y-52535714D01*
X117692857Y-52488095D01*
X117716666Y-52464285D01*
X117764285Y-52440476D01*
G04 #@! TO.C,R89*
X107121428Y-52676190D02*
X107288095Y-52438095D01*
X107407142Y-52676190D02*
X107407142Y-52176190D01*
X107216666Y-52176190D01*
X107169047Y-52200000D01*
X107145238Y-52223809D01*
X107121428Y-52271428D01*
X107121428Y-52342857D01*
X107145238Y-52390476D01*
X107169047Y-52414285D01*
X107216666Y-52438095D01*
X107407142Y-52438095D01*
X106835714Y-52390476D02*
X106883333Y-52366666D01*
X106907142Y-52342857D01*
X106930952Y-52295238D01*
X106930952Y-52271428D01*
X106907142Y-52223809D01*
X106883333Y-52200000D01*
X106835714Y-52176190D01*
X106740476Y-52176190D01*
X106692857Y-52200000D01*
X106669047Y-52223809D01*
X106645238Y-52271428D01*
X106645238Y-52295238D01*
X106669047Y-52342857D01*
X106692857Y-52366666D01*
X106740476Y-52390476D01*
X106835714Y-52390476D01*
X106883333Y-52414285D01*
X106907142Y-52438095D01*
X106930952Y-52485714D01*
X106930952Y-52580952D01*
X106907142Y-52628571D01*
X106883333Y-52652380D01*
X106835714Y-52676190D01*
X106740476Y-52676190D01*
X106692857Y-52652380D01*
X106669047Y-52628571D01*
X106645238Y-52580952D01*
X106645238Y-52485714D01*
X106669047Y-52438095D01*
X106692857Y-52414285D01*
X106740476Y-52390476D01*
X106407142Y-52676190D02*
X106311904Y-52676190D01*
X106264285Y-52652380D01*
X106240476Y-52628571D01*
X106192857Y-52557142D01*
X106169047Y-52461904D01*
X106169047Y-52271428D01*
X106192857Y-52223809D01*
X106216666Y-52200000D01*
X106264285Y-52176190D01*
X106359523Y-52176190D01*
X106407142Y-52200000D01*
X106430952Y-52223809D01*
X106454761Y-52271428D01*
X106454761Y-52390476D01*
X106430952Y-52438095D01*
X106407142Y-52461904D01*
X106359523Y-52485714D01*
X106264285Y-52485714D01*
X106216666Y-52461904D01*
X106192857Y-52438095D01*
X106169047Y-52390476D01*
G04 #@! TD*
M02*
